<svg width="54" height="41" viewBox="0 0 54 41" fill="none" xmlns="http://www.w3.org/2000/svg">
<path d="M25.797 14.5223V10.9164C25.797 8.91923 27.8428 7.31104 30.384 7.31104C32.9252 7.31104 34.971 8.91923 34.971 10.9164V14.5223" fill="#FF5855"/>
<path d="M50.5238 37.0543C51.9758 37.0543 53.319 36.1402 53.319 34.9988V23.8685C53.319 22.0117 46.0306 16.8849 41.3497 13.5634H3.29177C1.83977 13.5634 0.639893 14.5053 0.639893 15.6467V34.9988C0.639893 36.1402 1.83977 37.0543 3.29177 37.0543H7.30541C7.85418 33.6946 11.103 31.2178 15.046 30.9443C15.6093 30.9046 16.1827 30.8884 16.7662 30.9443C20.6804 31.314 23.8312 33.8321 24.3276 37.0543H32.9282C33.4412 33.6946 36.7617 31.2178 40.7047 30.9443C41.268 30.9046 41.8414 30.8884 42.4248 30.9443C46.3391 31.314 49.4182 33.8321 49.9504 37.0543H50.5238Z" fill="#CDD7E0"/>
<path d="M38.4473 13.5668H3.3279C1.8759 13.5668 0.676025 14.509 0.676025 15.6504V35.0223C0.676025 36.1637 1.8759 37.0496 3.3279 37.0496H4.04462V18.3534C4.04462 17.212 5.24449 16.2698 6.69649 16.2698H38.4473" fill="#EDEDED"/>
<path d="M39.9523 13.5669C44.571 16.8507 49.9147 21.2205 49.9147 22.915V34.0651C49.9147 34.5073 49.6727 34.8574 49.3414 35.1913C49.6451 35.7754 50.5234 36.3956 50.6315 37.0499H51.2048C52.6568 37.0499 54 36.164 54 35.0226V23.8725C54 22.0157 46.7116 16.8884 42.0308 13.5669H39.9523ZM12.2868 30.0105C8.34379 30.284 5.09496 32.7326 4.54619 36.0924H1.75098C2.22784 36.6499 3.05452 37.0499 3.97282 37.0499H7.98646C8.53523 33.6902 11.7841 31.2416 15.7271 30.968C16.2904 30.9284 16.8638 30.9122 17.4472 30.968C16.4206 30.4656 15.2469 30.1276 14.0069 30.0105C13.4235 29.9546 12.8501 29.9708 12.2868 30.0105ZM37.9455 30.0105C34.0025 30.284 30.6461 32.7326 30.1332 36.0924H24.7578C24.8601 36.4018 24.9226 36.7246 24.9726 37.0499H33.5733C34.0863 33.6902 37.4426 31.2416 41.3856 30.968C41.9254 30.9302 42.4757 30.9194 43.0341 30.968C42.0161 30.4656 40.9054 30.1276 39.6655 30.0105C39.082 29.9546 38.5086 29.9708 37.9453 30.0105H37.9455Z" fill="#A1B4C5"/>
<path d="M37.3007 13.5913C37.3007 13.5913 37.3007 21.1342 37.3007 24.1765C37.3007 25.4079 38.4575 26.2368 40.024 26.2368C44.3189 26.2368 53.2823 26.2368 53.2823 26.2368C53.2823 22.6733 52.376 21.4504 41.6138 13.5883L37.3007 13.5913Z" fill="#EDEDED"/>
<path d="M20.5597 22.646H12.6968M16.6282 19.5558V25.7364V19.5558Z" stroke="#FF5855" stroke-linecap="round" stroke-linejoin="round"/>
<path d="M19.5621 9.67428L17.0162 9.22487M30.4091 3.05105V1V3.05105ZM37.4953 4.84143L39.0988 3.22373L37.4953 4.84143ZM41.7216 9.78537L44.2748 9.36302L41.7216 9.78537ZM23.1907 5.01081L21.5225 3.43381L23.1907 5.01081Z" stroke="#373449" stroke-linecap="round" stroke-linejoin="round"/>
<path d="M25.8328 11.9008V13.9323H35.0068V11.9008H25.8328Z" fill="#ED4343"/>
<path d="M50.5238 37.0543C51.9758 37.0543 53.319 36.1402 53.319 34.9988V23.8685C53.319 22.0117 46.0306 16.8849 41.3497 13.5634H3.29177C1.83977 13.5634 0.639893 14.5053 0.639893 15.6467V34.9988C0.639893 36.1402 1.83977 37.0543 3.29177 37.0543H7.30541C7.85418 33.6946 11.103 31.2178 15.046 30.9443C15.6093 30.9046 16.1827 30.8884 16.7662 30.9443C20.6804 31.314 23.8312 33.8321 24.3276 37.0543H32.9282C33.4412 33.6946 36.7617 31.2178 40.7047 30.9443C41.268 30.9046 41.8414 30.8884 42.4248 30.9443C46.3391 31.314 49.4182 33.8321 49.9504 37.0543H50.5238Z" stroke="#373449" stroke-linecap="round" stroke-linejoin="round"/>
<path d="M43.4233 16.1744L37.3004 24.2659C37.3424 24.9563 37.802 25.5056 38.4472 25.8427L44.8567 17.2444C44.4047 16.9021 43.9305 16.5518 43.4233 16.1744ZM45.5735 17.8075L39.3789 26.1243C39.5938 26.1605 39.788 26.2369 40.024 26.2369H40.454L46.3618 18.3144C46.157 18.1552 45.7917 17.9748 45.5735 17.8075Z" fill="#BFD5E9"/>
<path d="M37.3007 13.5913C37.3007 13.5913 37.3007 21.1342 37.3007 24.1765C37.3007 25.4079 38.4575 26.2368 40.024 26.2368C44.3189 26.2368 53.2823 26.2368 53.2823 26.2368C53.2823 22.6733 52.376 21.4504 41.6138 13.5883L37.3007 13.5913Z" stroke="#373449" stroke-linecap="round" stroke-linejoin="round"/>
<path d="M30.4198 7.63464C27.8786 7.63464 25.8328 9.24152 25.8328 11.2387V12.9281C25.8328 10.9309 27.8786 9.32405 30.4198 9.32405C32.961 9.32405 35.0068 10.9309 35.0068 12.9281V11.2387C35.0068 9.24152 32.961 7.63464 30.4198 7.63464Z" fill="#FF866C"/>
<path d="M25.797 13.5368V10.9164C25.797 8.91923 27.8428 7.31104 30.384 7.31104C32.9252 7.31104 34.971 8.91923 34.971 10.9164V13.5368" stroke="#373449" stroke-linecap="round" stroke-linejoin="round"/>
<path d="M15.6299 40.419C17.4388 40.419 18.9051 39.2663 18.9051 37.8444C18.9051 36.4225 17.4388 35.2699 15.6299 35.2699C13.821 35.2699 12.3546 36.4225 12.3546 37.8444C12.3546 39.2663 13.821 40.419 15.6299 40.419Z" fill="#FF5855"/>
<path d="M16.1116 35.2478C14.3022 35.2478 12.8147 36.4159 12.8147 37.8382C12.8147 39.2604 14.3022 40.4287 16.1116 40.4287C16.3719 40.4287 16.5856 40.362 16.8283 40.3169C15.4184 40.0293 14.3915 39.0373 14.3915 37.8391C14.3915 36.6408 15.4184 35.6487 16.8283 35.3613C16.5856 35.3163 16.3719 35.2496 16.1116 35.2496V35.2478Z" fill="#FF866C"/>
<path d="M15.1258 35.2478C16.9352 35.2478 18.4227 36.4159 18.4227 37.8382C18.4227 39.2604 16.9352 40.4287 15.1258 40.4287C14.8655 40.4287 14.6518 40.362 14.4091 40.3169C15.819 40.0293 16.8459 39.0373 16.8459 37.8391C16.8459 36.6408 15.819 35.6487 14.4091 35.3613C14.6518 35.3163 14.8655 35.2496 15.1258 35.2496V35.2478Z" fill="#ED4343"/>
<path d="M15.6299 40.419C17.4388 40.419 18.9051 39.2663 18.9051 37.8444C18.9051 36.4225 17.4388 35.2699 15.6299 35.2699C13.821 35.2699 12.3546 36.4225 12.3546 37.8444C12.3546 39.2663 13.821 40.419 15.6299 40.419Z" stroke="#373449" stroke-width="1.00044" stroke-linecap="round" stroke-linejoin="round"/>
<path d="M41.5785 40.419C43.3874 40.419 44.8537 39.2663 44.8537 37.8444C44.8537 36.4225 43.3874 35.2699 41.5785 35.2699C39.7696 35.2699 38.3032 36.4225 38.3032 37.8444C38.3032 39.2663 39.7696 40.419 41.5785 40.419Z" fill="#FF5855"/>
<path d="M42.0605 35.2478C40.2511 35.2478 38.7635 36.4159 38.7635 37.8382C38.7635 39.2604 40.2511 40.4287 42.0605 40.4287C42.3207 40.4287 42.5345 40.362 42.7772 40.3169C41.3673 40.0293 40.3403 39.0373 40.3403 37.8391C40.3403 36.6408 41.3673 35.6487 42.7772 35.3613C42.5345 35.3163 42.3207 35.2496 42.0605 35.2496V35.2478Z" fill="#FF866C"/>
<path d="M41.0748 35.2478C42.8841 35.2478 44.3717 36.4159 44.3717 37.8382C44.3717 39.2604 42.8841 40.4287 41.0748 40.4287C40.8145 40.4287 40.6008 40.362 40.358 40.3169C41.7679 40.0293 42.7949 39.0373 42.7949 37.8391C42.7949 36.6408 41.7679 35.6487 40.358 35.3613C40.6008 35.3163 40.8145 35.2496 41.0748 35.2496V35.2478Z" fill="#ED4343"/>
<path d="M41.5785 40.419C43.3874 40.419 44.8537 39.2663 44.8537 37.8444C44.8537 36.4225 43.3874 35.2699 41.5785 35.2699C39.7696 35.2699 38.3032 36.4225 38.3032 37.8444C38.3032 39.2663 39.7696 40.419 41.5785 40.419Z" stroke="#373449" stroke-width="1.00044" stroke-linecap="round" stroke-linejoin="round"/>
</svg>
