<svg  class="" viewBox="0 0 1280 800" fill="none" xmlns="http://www.w3.org/2000/svg">
<path d="M1310.23 1021.03C915.841 1606.67 1283.19 354.433 1283.19 354.433V-1L-1 -0.999756C-1 -0.999756 1704.63 435.389 1310.23 1021.03Z" fill="#EC9E41"/>
<path d="M1277.19 737.208L1286.56 757.777C1287.47 759.772 1289.71 760.994 1292.08 760.994C1292.79 760.994 1293.52 760.885 1294.22 760.653C1297.27 759.648 1298.78 756.731 1297.6 754.138L1287.81 732.654C1287.54 732.049 1287.13 731.496 1286.61 731.023L1271.47 717.338C1270.68 721.986 1269.62 725.995 1268.51 729.352L1277.19 737.208Z" fill="white"/>
<path d="M1247.02 679.755H1229.02V680.446H1247.02V679.755Z" fill="white"/>
<path d="M1243.27 683.899H1225.27V684.589H1243.27V683.899Z" fill="white"/>
<path d="M1239.9 681.827H1214.07V682.518H1239.9V681.827Z" fill="white"/>
<path d="M1269 673.008C1267.38 673.165 1265.88 672.442 1265.15 671.287L1251.8 672.58C1251.61 673.26 1251.51 673.969 1251.51 674.699C1251.51 679.705 1256.28 683.762 1262.16 683.762C1268.04 683.762 1272.81 679.705 1272.81 674.699C1272.81 673.472 1272.52 672.303 1272.01 671.236C1271.43 672.183 1270.34 672.879 1269 673.008ZM1267.14 666.685C1265.65 666.016 1263.96 665.635 1262.16 665.635C1258.01 665.635 1254.41 667.656 1252.65 670.604L1264.71 669.437C1264.84 668.202 1265.79 667.138 1267.14 666.685ZM1274.48 707.793C1275.41 708.71 1276.32 709.671 1277.19 710.674C1277.52 709.273 1277.78 707.844 1277.98 706.394L1274.93 707.635C1274.78 707.695 1274.63 707.746 1274.48 707.793ZM1265.43 688.197C1262.61 685.521 1258.78 684.732 1255.87 685.347C1255.34 685.461 1254.84 685.645 1254.39 685.887L1238.86 692.755C1237.24 693.474 1236.45 695.077 1236.99 696.565L1241.99 710.355C1242.49 711.739 1243.99 712.628 1245.61 712.628C1245.98 712.628 1246.35 712.582 1246.72 712.484C1248.72 711.959 1249.84 710.156 1249.23 708.455L1245.16 697.234L1251.27 694.532C1251.31 694.693 1251.36 694.853 1251.41 695.012C1252.71 700.65 1255.01 708.737 1253.92 715.662C1253.61 720.137 1254.77 721.299 1257.45 721.611C1256.09 726.978 1254.44 730.923 1253.24 733.377L1233.72 730.582C1230.49 730.117 1227.44 731.969 1226.9 734.712C1226.36 737.454 1228.53 740.051 1231.75 740.513L1255.67 743.937C1255.99 743.984 1256.32 744.007 1256.65 744.007C1258.71 744.007 1260.65 743.093 1261.73 741.557C1262 741.174 1268.24 732.122 1270.74 715.04C1270.78 714.902 1270.82 714.765 1270.85 714.621C1271.19 712.129 1271.38 709.927 1271.41 707.862C1270.67 707.672 1269.99 707.333 1269.42 706.863L1256.79 696.389C1254.87 694.792 1254.83 692.16 1256.71 690.522C1257.63 689.714 1258.87 689.269 1260.2 689.269C1261.48 689.269 1262.69 689.687 1263.6 690.448L1273.79 698.9L1274.15 698.755C1272.58 696.378 1270.83 693.967 1269.21 692.008C1267.77 690.259 1266.43 688.875 1265.43 688.197Z" fill="white"/>
<path d="M1272.83 707.114C1273.38 707.114 1273.94 707.011 1274.46 706.8L1290.48 700.288C1292.36 699.52 1293.16 697.596 1292.26 695.99C1291.36 694.385 1289.1 693.705 1287.21 694.472L1273.58 700.015L1262.84 691.11C1261.35 689.868 1258.95 689.894 1257.49 691.168C1256.03 692.443 1256.06 694.483 1257.55 695.726L1270.18 706.199C1270.9 706.799 1271.86 707.114 1272.83 707.114Z" fill="white"/>
</svg>