<svg xmlns="http://www.w3.org/2000/svg" viewBox="0 0 96 96"><g data-name="Tow Car"><path fill="#737ec5" d="M32.3,33.72,14.47,26.49a2.43,2.43,0,0,1,1.38-4.64l18.56,3.64Z"/><path fill="#b3d2f1" d="M47.6,41.59,27.68,44.13V28.81A5.64,5.64,0,0,1,38.16,25.9Z"/><path fill="#dbebff" d="M30.68,34.6v5a1,1,0,0,0,1.15,1l9.27-1.18a1,1,0,0,0,.75-1.54l-2.27-3.78a1,1,0,0,0-.88-.49h-7A1,1,0,0,0,30.68,34.6Z"/><path fill="#737ec5" d="M50.7,41.19v4.69L3,52a2.64,2.64,0,0,0-2.3,2.61V49.89A2.64,2.64,0,0,1,3,47.28Z"/><path fill="#8293e8" d="M15.52,47.73A2.33,2.33,0,0,0,18.14,50l18.18-2.32a2.33,2.33,0,0,0-.59-4.62L17.55,45.42A2.33,2.33,0,0,0,15.52,47.73Z"/><path fill="#5a56b1" d="M46.68,42.69v2.43A1.13,1.13,0,0,0,48,46.23l2.75-.35V41.19l-3,.39A1.12,1.12,0,0,0,46.68,42.69Z"/><path fill="#9bb0e3" d="M3,52,50.7,45.88V60.76A3.29,3.29,0,0,1,47.41,64H3.32A2.63,2.63,0,0,1,.69,61.41V54.58A2.63,2.63,0,0,1,3,52Z"/><path fill="#7d97e3" d="M50.7,59.75v1A3.28,3.28,0,0,1,47.41,64H3.32A2.63,2.63,0,0,1,.69,61.41V59.75Z"/><path fill="#5f6ab1" d="M45.79,64H23.6l4.69-9.66a3.41,3.41,0,0,1,3.07-1.93h12a2.45,2.45,0,0,1,2.44,2.44Z"/><path fill="#619aff" d="M88.87,41.23,77.39,39.89a1.79,1.79,0,0,1-1.52-1.34L72.11,23.61a2.88,2.88,0,0,0-2.79-2.18H53.56a2.86,2.86,0,0,0-2.86,2.86V61.18A2.86,2.86,0,0,0,53.56,64H90.27a2.27,2.27,0,0,0,2.27-2.37L91.73,44.3A3.24,3.24,0,0,0,88.87,41.23Z"/><path fill="#576df5" d="M50.7,61.18A2.86,2.86,0,0,0,53.56,64H90.27a2.27,2.27,0,0,0,2.27-2.37l-.11-2.34H52.54A1.84,1.84,0,0,0,50.7,61.18Z"/><path fill="#7ab8ff" d="M89,49.29l-.16-3.5a1.85,1.85,0,0,0-1.62-1.74L77,42.87a1.61,1.61,0,0,0-1.86,1.56v4.93A1.59,1.59,0,0,0,76.75,51H87.37A1.59,1.59,0,0,0,89,49.29Z"/><path fill="#5a56b1" d="M68.84,26a1,1,0,0,0-1-.78H55.79a1,1,0,0,0-1,1V57.7a1.65,1.65,0,0,0,1.66,1.65h6.42a1.62,1.62,0,0,0,1.49-1,14,14,0,0,1,6.55-6.79,1.62,1.62,0,0,0,.89-1.46C71.76,35.31,72.28,39.6,68.84,26Z"/><path fill="#5a74cf" d="M62.94,52.63c2.74-3.09,3.82-2.82,3.82-3.77v-1a.88.88,0,0,0-.88-.88H60.63a.89.89,0,0,0-.88.88v4.22a.88.88,0,0,0,.88.87C62.43,52.92,62.61,53,62.94,52.63Z"/><path fill="#d1ebf6" d="M71.37,36.13C71,34.53,70.37,32,68.84,26a1,1,0,0,0-1-.79H55.79a1,1,0,0,0-1,1V36.85a1.87,1.87,0,0,0,1.87,1.87H69.25A2.17,2.17,0,0,0,71.37,36.13Z"/><path fill="#fff" d="M66.28 31.27a.63.63 0 00.61-.79L66.6 29.3a1.51 1.51 0 00-1.46-1.13H59.26a1.51 1.51 0 00-1.51 1.5v1a.64.64 0 00.63.63zM67 32.7H58.38a.64.64 0 00-.63.64v.87a1.52 1.52 0 001.51 1.51h7a1.51 1.51 0 001.46-1.87c-.06-.21-.11-.43-.17-.67A.64.64 0 0067 32.7z"/><circle cx="16.91" cy="64.04" r="10.14" fill="#464669"/><path fill="#737ec5" d="M16.91,67.94A3.9,3.9,0,1,1,20.8,64,3.91,3.91,0,0,1,16.91,67.94Z"/><circle cx="77" cy="64.04" r="10.14" fill="#464669"/><path fill="#737ec5" d="M77,67.94A3.9,3.9,0,1,1,80.9,64,3.91,3.91,0,0,1,77,67.94Z"/><rect width="7.48" height="4.69" x="87.14" y="59.35" fill="#d1ebf6" rx="1.63"/><circle cx="33.47" cy="29.45" r="2.48" fill="#737ec5"/><circle cx="12.6" cy="33.94" r="2.01" fill="#737ec5"/><path fill="#619aff" d="M77.76,21.43h3a2,2,0,0,1,2,2v4.74A1.74,1.74,0,0,1,81,29.9H79.86a2.09,2.09,0,0,1-2.09-2.09V21.43A0,0,0,0,1,77.76,21.43Z"/><path fill="#302d3d" d="M71.65 52.7a2.62 2.62 0 001.45-2.36c0-14.47.52-10.85-2.83-24a2.5 2.5 0 00-.39-1.08 2 2 0 00-1.7-.92H56.13a2 2 0 00-2 2V57.9a2.65 2.65 0 002.65 2.65h6.42A2.63 2.63 0 0065.58 59 13 13 0 0171.65 52.7zM68.23 26.4c.48 1.94 2.5 9.88 2.5 10.13a1.16 1.16 0 01-1.13 1.39H57a.85.85 0 01-.85-.82l0-10.73zM63.75 58.18a.62.62 0 01-.58.37H56.75a.65.65 0 01-.65-.65V39.79c.64.18-.24.13 13.5.13a3 3 0 001.47-.38c0 .32 0-.73 0 10.8a.62.62 0 01-.33.57A14.9 14.9 0 0063.75 58.18zM17.25 59.34a4.9 4.9 0 104.9 4.9A4.9 4.9 0 0017.25 59.34zm0 7.8a2.9 2.9 0 112.9-2.9A2.91 2.91 0 0117.25 67.14zM77.35 59.34a4.9 4.9 0 104.89 4.9A4.9 4.9 0 0077.35 59.34zm0 7.8a2.9 2.9 0 112.89-2.9A2.92 2.92 0 0177.35 67.14z"/><path fill="#302d3d" d="M61.82,41.45H58.9a1,1,0,1,0,0,2h2.92a1,1,0,1,0,0-2Z"/><path fill="#302d3d" d="M93.73,58.58c-.64-13.78,0-.8-.66-14.12a4.23,4.23,0,0,0-3.75-4L77.85,39.1a.82.82,0,0,1-.67-.59c-4.1-16.33-3.77-15.24-4.12-15.88h4V28A3.09,3.09,0,0,0,80.2,31.1h1.11a2.74,2.74,0,0,0,2.74-2.74V23.62a3,3,0,0,0-3-3H53.9A3.87,3.87,0,0,0,50,24.49v16l-1.58.2-9.1-15.13a6.63,6.63,0,0,0-9.65-1.9L16.38,21.07a3.42,3.42,0,0,0-2.78,6.05l-1.4,4.1a3,3,0,0,0,.74,5.94h0a1.62,1.62,0,1,1-1.64,1.62,1,1,0,0,0-1-1c-2,0-.87,4.61,2.61,4.61A3.61,3.61,0,0,0,15.28,36,3,3,0,0,0,16,34.14a3,3,0,0,0-1.71-2.72L15.41,28c1.18.49-4.27-1.72,11.61,4.71V43.45l-23.82,3A3.63,3.63,0,0,0,0,50.09V61.61a3.63,3.63,0,0,0,3.62,3.63h2.5a11.14,11.14,0,0,0,22.19,0h19.4a4.3,4.3,0,0,0,3.17-1.4,3.91,3.91,0,0,0,3,1.4H66.25a11.13,11.13,0,0,0,22.18,0h4.92A2.62,2.62,0,0,0,96,62.61V61.18A2.63,2.63,0,0,0,93.73,58.58Zm-11.68-35v4.74a.73.73,0,0,1-.74.74H80.2A1.09,1.09,0,0,1,79.11,28V22.62h2A1,1,0,0,1,82.05,23.62ZM12.94,35.15h0a1,1,0,0,1,0-2h0a1,1,0,0,1,0,2Zm2.35-9.35A1.44,1.44,0,0,1,15.73,23c.19,0-.58-.13,12.37,2.41C26.87,27.27,27,28.89,27,30.57ZM29,29a4.65,4.65,0,0,1,8.63-2.4L46.29,41,29,43.18ZM2,50.09a1.63,1.63,0,0,1,1.42-1.62L50,42.53V45.2C-.27,51.62,2.85,51.13,2,51.54ZM17.25,73.38a9.14,9.14,0,1,1,9.14-9.14A9.17,9.17,0,0,1,17.25,73.38Zm11.1-10.14a11.33,11.33,0,0,0-1-3.71L29.54,55a2.39,2.39,0,0,1,2.17-1.36h12a1.44,1.44,0,0,1,1.44,1.43v8.15Zm19.4,0h-.62V55.09a3.43,3.43,0,0,0-3.44-3.43h-12a4.41,4.41,0,0,0-4,2.48L26.1,57.49A11.13,11.13,0,0,0,6.16,63.24H3.66A1.62,1.62,0,0,1,2,61.61V54.78a1.58,1.58,0,0,1,.4-1.07,1.49,1.49,0,0,1,.32-.29h0c.47-.32-2.49.15,47.27-6.2V61A2.29,2.29,0,0,1,47.75,63.24ZM52,61.38V24.49a1.87,1.87,0,0,1,1.86-1.87c16.18,0,11.43,0,15.77,0a1.85,1.85,0,0,1,1.81,1.42L75.24,39a2.8,2.8,0,0,0,2.38,2.09L89.1,42.42a2.24,2.24,0,0,1,2,2.13s.14,3.06.15,3.07c-1-.58-.29-.37-13-1.86a1,1,0,0,0-.24,2l11.48,1.34a2.37,2.37,0,0,1,1.93,2.28c0,.1-.05-1,.33,7.18H89.11a2.6,2.6,0,0,0-1.8.72,11.14,11.14,0,0,0-21.06,4H53.9A1.86,1.86,0,0,1,52,61.38Zm25.31,12a9.14,9.14,0,1,1,9.13-9.14A9.17,9.17,0,0,1,77.35,73.38ZM94,62.61a.63.63,0,0,1-.61.63H89.11a.63.63,0,0,1-.63-.63V61.18a.63.63,0,0,1,.63-.63h4.24a.63.63,0,0,1,.61.63Z"/><path fill="#302d3d" d="M40.19 57.44H33.36a1 1 0 000 2h6.83a1 1 0 000-2zM32.85 26.33a3.46 3.46 0 00-1 6.2 3.54 3.54 0 001.95.59 3.47 3.47 0 10-1-6.79zM34.42 31A1.47 1.47 0 0133 28.41 1.47 1.47 0 1134.42 31z"/></g></svg>