<svg xmlns="http://www.w3.org/2000/svg" enable-background="new 0 0 64 64" viewBox="0 0 64 64"><path d="M43.27 30.27H26.56c-.27 0-.49-.22-.49-.49V21.9c0-.13.05-.26.14-.35.09-.09.22-.14.35-.14h0c9 .01 14.99 5.09 17.11 8.09.11.15.12.35.04.51C43.62 30.17 43.45 30.27 43.27 30.27zM27.05 29.28h15.21c-2.37-2.8-7.63-6.72-15.21-6.89V29.28zM52.6 45.93c-3.17 0-5.75-2.58-5.75-5.75 0-3.17 2.58-5.75 5.75-5.75 3.17 0 5.75 2.58 5.75 5.75C58.35 43.35 55.77 45.93 52.6 45.93zM52.6 35.42c-2.63 0-4.77 2.14-4.77 4.77 0 2.63 2.14 4.77 4.77 4.77 2.63 0 4.77-2.14 4.77-4.77C57.36 37.55 55.22 35.42 52.6 35.42z"/><path d="M52.6 42.52c-1.29 0-2.34-1.05-2.34-2.34 0-1.29 1.05-2.34 2.34-2.34 1.29 0 2.34 1.05 2.34 2.34C54.94 41.47 53.89 42.52 52.6 42.52zM52.6 38.83c-.75 0-1.36.61-1.36 1.36s.61 1.36 1.36 1.36c.75 0 1.36-.61 1.36-1.36S53.34 38.83 52.6 38.83zM10.8 45.93c-3.17 0-5.75-2.58-5.75-5.75 0-3.17 2.58-5.75 5.75-5.75 3.17 0 5.75 2.58 5.75 5.75C16.55 43.35 13.97 45.93 10.8 45.93zM10.8 35.42c-2.63 0-4.77 2.14-4.77 4.77 0 2.63 2.14 4.77 4.77 4.77 2.63 0 4.77-2.14 4.77-4.77C15.56 37.55 13.42 35.42 10.8 35.42z"/><path d="M10.8 42.52c-1.29 0-2.34-1.05-2.34-2.34 0-1.29 1.05-2.34 2.34-2.34 1.29 0 2.34 1.05 2.34 2.34C13.14 41.47 12.09 42.52 10.8 42.52zM10.8 38.83c-.75 0-1.36.61-1.36 1.36s.61 1.36 1.36 1.36c.75 0 1.36-.61 1.36-1.36S11.54 38.83 10.8 38.83zM24.19 30.27H8.22c-.22 0-.41-.15-.47-.36-.06-.21.03-.44.22-.55 1.13-.69 2.14-1.56 3.22-2.48 2.9-2.49 6.19-5.31 13-5.46.1 0 .26.05.36.14.09.09.15.22.15.35v7.87C24.68 30.05 24.46 30.27 24.19 30.27zM9.8 29.28h13.89v-6.87c-6.11.27-9.04 2.78-11.88 5.21C11.14 28.21 10.49 28.77 9.8 29.28zM63.32 35.87c-.03 0-.06 0-.09-.01l-2.24-.55c-1.61-.41-2.62-1.63-2.46-2.97l.13-1.02c.03-.27.28-.47.55-.43.27.03.46.28.43.55l-.13 1.02c-.1.83.61 1.62 1.73 1.9l2.16.54c.26.06.45.33.39.59C63.72 35.71 63.54 35.87 63.32 35.87zM16.06 40.67c-.27 0-.49-.22-.49-.49 0-.27.22-.49.49-.49l31.28-.01c.27 0 .49.22.49.49 0 .27-.22.49-.49.49L16.06 40.67z"/><path d="M5.54,40.67H3.76C1.37,40.67,0,38.94,0,35.92l0.01-5.24c0-0.61,0.47-1.22,1.07-1.38c3.95-1.14,6.29-3.04,8.55-4.87c3.11-2.53,6.33-5.14,13.58-5.5c13.74-0.68,19.98,5.72,23.34,9.16c0.25,0.25,0.48,0.49,0.7,0.72c1.14,0.11,7.5,0.8,13.18,2.4c2.85,0.8,3.35,3.15,3.47,5.1L64,37.93c0.03,0.64-0.21,1.27-0.69,1.77c-0.56,0.59-1.37,0.95-2.16,0.95l-3.29,0.01c-0.27,0-0.49-0.22-0.49-0.49c0-0.27,0.22-0.49,0.49-0.49l3.29-0.01c0.52,0,1.07-0.24,1.45-0.64c0.29-0.31,0.45-0.68,0.43-1.04l-0.09-1.63c-0.13-2.1-0.65-3.61-2.76-4.21c-6.14-1.73-13.11-2.38-13.18-2.39c-0.11-0.01-0.22-0.06-0.3-0.14c-0.26-0.26-0.54-0.55-0.84-0.85c-3.48-3.56-9.3-9.52-22.59-8.86c-6.93,0.34-9.88,2.74-13.01,5.28c-2.34,1.9-4.75,3.86-8.9,5.06C1.16,30.3,1,30.51,1,30.68l-0.01,5.24c0,1.72,0.48,3.77,2.77,3.77h1.78c0.27,0,0.49,0.22,0.49,0.49C6.03,40.45,5.81,40.67,5.54,40.67z"/><path d="M47.03,29.77c-0.11,0-0.22-0.04-0.31-0.11c-0.21-0.17-0.24-0.48-0.07-0.69c0.04-0.06,4.51-5.55,9.44-9.75c1.25-1.06,2.58-1.38,4.09-0.98c0.26,0.07,0.42,0.34,0.35,0.6c-0.07,0.26-0.34,0.42-0.6,0.35c-1.19-0.32-2.2-0.07-3.2,0.77c-4.86,4.14-9.27,9.57-9.31,9.62C47.32,29.71,47.17,29.77,47.03,29.77z"/><g><path d="M1.77,35.69H0.49C0.22,35.69,0,35.47,0,35.2c0-0.27,0.22-0.49,0.49-0.49h1.28c0.69,0,1.25-0.56,1.25-1.25c0-0.69-0.56-1.25-1.25-1.25H0.5c-0.27,0-0.49-0.22-0.49-0.49c0-0.27,0.22-0.49,0.49-0.49h1.27c1.23,0,2.24,1,2.24,2.24C4.01,34.68,3.01,35.69,1.77,35.69z"/></g><g><path d="M61.27,32.56c-0.23,0-0.44-0.16-0.48-0.4l-2.12-10.94c-0.08-0.4-0.27-0.77-0.56-1.08l-0.91-0.93c-0.19-0.19-0.19-0.51,0.01-0.7c0.19-0.19,0.51-0.19,0.7,0.01l0.91,0.94c0.43,0.44,0.72,0.99,0.83,1.58l2.12,10.93c0.05,0.27-0.12,0.52-0.39,0.58C61.33,32.55,61.3,32.56,61.27,32.56z"/></g></svg>