<svg width="88" height="83" viewBox="0 0 88 83" fill="none" xmlns="http://www.w3.org/2000/svg">
<path d="M18.5973 0H69.4027C79.673 0 88 7.85387 88 17.5407V65.4593C88 75.1461 79.673 83 69.4027 83H18.5973C8.327 83 0 75.1461 0 65.4593V17.5407C0 7.85387 8.327 0 18.5973 0Z" fill="#EC9E41"/>
<path d="M54.0833 66.5729V64.3423C54.0833 63.1647 54.857 62.1117 56.0267 61.6984L60.071 60.2684V57.8285L54.0833 66.5729ZM64.5957 57.8302V60.2701L68.64 61.7001C69.8078 62.1134 70.5833 63.1664 70.5833 64.344V66.5746L64.5957 57.8302ZM44.0623 31.9861C42.4256 31.9838 40.8567 31.3695 39.6995 30.2777C38.5424 29.186 37.8914 27.706 37.8895 26.1623V23.4077H39.7228V26.1623C39.7228 28.4206 41.6698 30.2569 44.0623 30.2569C46.4548 30.2569 48.4037 28.4188 48.4037 26.1623V23.4077H50.237V26.1623C50.236 27.7066 49.5852 29.1874 48.4274 30.2793C47.2696 31.3713 45.6997 31.9852 44.0623 31.9861Z" fill="white"/>
<path d="M40.1867 30.3866H42.02V32.6294H40.1867V30.3866ZM46.2257 30.3866H48.059V32.6294H46.2257V30.3866ZM49.3222 24.9207C49.185 24.9205 49.0496 24.8914 48.9259 24.8354C48.8021 24.7795 48.6933 24.6981 48.6072 24.5974L47.2468 23.0031H40.8778L39.5212 24.5957C39.5621 24.738 39.5637 24.8878 39.5259 25.0308C39.488 25.1739 39.4119 25.3054 39.3048 25.4128C39.1977 25.5202 39.0632 25.6 38.9142 25.6444C38.7651 25.6889 38.6065 25.6966 38.4534 25.6668C38.3003 25.637 38.1578 25.5707 38.0396 25.4742C37.9214 25.3777 37.8314 25.2542 37.7781 25.1156C37.7249 24.977 37.7102 24.8278 37.7355 24.6823C37.7608 24.5367 37.8251 24.3998 37.9225 24.2844L37.0223 21.1788C36.9246 20.7772 36.9246 20.3599 37.0224 19.9583C37.1202 19.5567 37.3132 19.1812 37.587 18.86C37.9489 18.4373 38.4378 18.1275 38.9895 17.9712C39.145 17.3179 39.5222 16.7303 40.0638 16.2974C40.4266 16.0051 40.8532 15.7916 41.3132 15.6721C41.7732 15.5525 42.2555 15.5299 42.7258 15.6057L48.4202 16.5032C49.3057 16.6415 50.0793 17.0997 50.5963 17.7914C51.1152 18.4848 51.3132 19.3286 51.1537 20.1638L50.2187 24.2377C50.1746 24.4311 50.0616 24.6044 49.8985 24.7287C49.7353 24.853 49.5319 24.9208 49.3222 24.9207ZM42.1868 17.2917C41.8429 17.291 41.51 17.4063 41.2482 17.6167C41.087 17.7449 40.9575 17.9049 40.8688 18.0853C40.7801 18.2657 40.7344 18.4623 40.7348 18.6612C40.7348 19.1384 40.3242 19.5845 39.8182 19.5845C39.6634 19.5842 39.5105 19.6167 39.3708 19.6796C39.2311 19.7425 39.1081 19.8342 39.011 19.9478C38.9138 20.0615 38.845 20.1943 38.8096 20.3365C38.7741 20.4786 38.773 20.6264 38.8062 20.769L39.2205 22.1921L39.7265 21.5973C39.8121 21.4958 39.9208 21.4139 40.0446 21.3576C40.1684 21.3013 40.3041 21.2721 40.4415 21.2722H47.6887C47.9655 21.2722 48.2295 21.3898 48.4037 21.5956L48.8345 22.1022L49.357 19.8266C49.3887 19.6456 49.3821 19.4605 49.3378 19.2818C49.2934 19.1032 49.2121 18.9346 49.0985 18.7857C48.9852 18.6321 48.8403 18.5017 48.6724 18.4022C48.5046 18.3027 48.3171 18.2361 48.1213 18.2064L42.427 17.309C42.3474 17.2982 42.2672 17.2924 42.1868 17.2917ZM33.0568 43.2084C32.8137 43.2084 32.5806 43.1173 32.4087 42.9552C32.2367 42.793 32.1402 42.5731 32.1402 42.3438V39.3904C32.1402 37.9466 32.956 36.5857 34.2705 35.8404L38.3717 33.5199C38.475 33.4615 38.5894 33.4229 38.7085 33.4063C38.8276 33.3897 38.949 33.3953 39.0658 33.4229C39.1826 33.4505 39.2925 33.4996 39.3892 33.5673C39.4858 33.6349 39.5675 33.7199 39.6293 33.8173C39.6912 33.9147 39.7321 34.0227 39.7498 34.135C39.7674 34.2473 39.7614 34.3619 39.7321 34.472C39.7029 34.5822 39.6509 34.6858 39.5791 34.777C39.5074 34.8682 39.4173 34.9452 39.314 35.0035L35.2147 37.3241C34.8373 37.5393 34.525 37.8423 34.3077 38.2042C34.0903 38.566 33.9752 38.9745 33.9735 39.3904V42.3438C33.9735 42.5731 33.8769 42.793 33.705 42.9552C33.5331 43.1173 33.2999 43.2084 33.0568 43.2084ZM55.0568 43.2084C54.8137 43.2084 54.5806 43.1173 54.4087 42.9552C54.2367 42.793 54.1402 42.5731 54.1402 42.3438V39.3904C54.1402 38.55 53.6653 37.7581 52.899 37.3241L48.8015 35.0035C48.6982 34.9452 48.6081 34.8682 48.5364 34.777C48.4646 34.6858 48.4126 34.5822 48.3834 34.472C48.3541 34.3619 48.3481 34.2473 48.3657 34.135C48.3834 34.0227 48.4243 33.9147 48.4862 33.8173C48.548 33.7199 48.6297 33.6349 48.7263 33.5673C48.823 33.4996 48.9329 33.4505 49.0497 33.4229C49.1665 33.3953 49.2879 33.3897 49.407 33.4063C49.5261 33.4229 49.6405 33.4615 49.7438 33.5199L53.8432 35.8404C54.4914 36.21 55.0279 36.7306 55.401 37.3524C55.7742 37.9741 55.9713 38.676 55.9735 39.3904V42.3438C55.9735 42.5731 55.8769 42.793 55.705 42.9552C55.5331 43.1173 55.2999 43.2084 55.0568 43.2084Z" fill="white"/>
<path d="M37.6402 43.1634C37.1342 43.1634 36.7235 42.8211 36.7235 42.3421C36.7235 41.6522 36.487 41.0763 36.0562 40.6337L35.332 39.8832C35.2509 39.7994 35.188 39.7014 35.147 39.5947C35.1061 39.488 35.0878 39.3747 35.0933 39.2614C35.0987 39.148 35.1278 39.0368 35.1788 38.934C35.2298 38.8312 35.3018 38.7389 35.3907 38.6624C35.4795 38.5859 35.5834 38.5266 35.6966 38.488C35.8097 38.4494 35.9298 38.4321 36.05 38.4373C36.1702 38.4424 36.2881 38.4698 36.3971 38.5179C36.506 38.5661 36.6039 38.634 36.685 38.7178L37.4092 39.4665C38.148 40.2273 38.5568 41.2199 38.5568 42.2556C38.5568 42.7346 38.148 43.1634 37.6402 43.1634ZM50.4662 43.1634C49.9602 43.1634 49.5495 42.8211 49.5495 42.3421C49.5495 41.2216 49.9583 40.229 50.6972 39.4665L51.4213 38.7178C51.5025 38.634 51.6003 38.5661 51.7093 38.5179C51.8182 38.4698 51.9361 38.4424 52.0563 38.4373C52.1765 38.4321 52.2966 38.4494 52.4097 38.488C52.5229 38.5266 52.6268 38.5859 52.7157 38.6624C52.8045 38.7389 52.8765 38.8312 52.9275 38.934C52.9785 39.0368 53.0076 39.148 53.0131 39.2614C53.0185 39.3747 53.0002 39.488 52.9593 39.5947C52.9183 39.7014 52.8555 39.7994 52.7743 39.8832L52.0502 40.6319C51.6203 41.0755 51.3823 41.6548 51.3828 42.2556C51.3828 42.7346 50.974 43.1634 50.4662 43.1634ZM41.173 37.8549L41.1235 37.8532C40.9946 37.8469 40.8686 37.8148 40.7538 37.7591C40.6391 37.7033 40.5382 37.6252 40.458 37.5298L38.1425 34.8012C38.007 34.6409 37.9363 34.4404 37.943 34.2355C37.9497 34.0305 38.0334 33.8345 38.1792 33.6824L39.743 32.0466C39.8752 31.9084 40.0512 31.8141 40.2448 31.778C40.4384 31.7418 40.6393 31.7657 40.8173 31.846L44.462 33.4818C44.5941 33.5415 44.7091 33.6302 44.7973 33.7404C44.8856 33.8506 44.9446 33.9792 44.9694 34.1153C44.9942 34.2514 44.984 34.3912 44.9397 34.5229C44.8955 34.6545 44.8184 34.7743 44.715 34.8721L41.822 37.6007C41.6498 37.7631 41.4165 37.8545 41.173 37.8549ZM40.0602 34.2945L41.2482 35.6969L42.5003 34.5159L40.645 33.6824L40.0602 34.2945Z" fill="white"/>
<path d="M46.9572 37.8549C46.7141 37.8544 46.481 37.7637 46.3082 37.6025L43.417 34.8739C43.314 34.7759 43.2373 34.6561 43.1932 34.5245C43.1492 34.3929 43.1392 34.2533 43.1639 34.1173C43.1887 33.9813 43.2475 33.8528 43.3355 33.7426C43.4236 33.6324 43.5382 33.5436 43.67 33.4836L47.3128 31.8478C47.4909 31.7675 47.6917 31.7436 47.8853 31.7797C48.079 31.8159 48.255 31.9101 48.3872 32.0484L49.951 33.6842C50.0964 33.8365 50.1799 34.0324 50.1866 34.2372C50.1933 34.4421 50.1228 34.6425 49.9877 34.803L47.6722 37.5316C47.5914 37.6265 47.4905 37.7043 47.3758 37.76C47.2612 37.8157 47.1354 37.848 47.0067 37.8549H46.9572ZM45.6317 34.5159L46.8838 35.6952L48.0718 34.2946L47.487 33.6825L45.6317 34.5159Z" fill="white"/>
<path d="M44.0495 43.2084C43.8064 43.2084 43.5732 43.1173 43.4013 42.9552C43.2294 42.7931 43.1328 42.5731 43.1328 42.3438V34.2271C43.1328 33.9978 43.2294 33.7779 43.4013 33.6158C43.5732 33.4536 43.8064 33.3625 44.0495 33.3625C44.2926 33.3625 44.5258 33.4536 44.6977 33.6158C44.8696 33.7779 44.9662 33.9978 44.9662 34.2271V42.3438C44.9662 42.5731 44.8696 42.7931 44.6977 42.9552C44.5258 43.1173 44.2926 43.2084 44.0495 43.2084ZM44.0568 54.4688C43.8137 54.4688 43.5806 54.3777 43.4087 54.2155C43.2368 54.0534 43.1402 53.8335 43.1402 53.6042V45.8229C43.1402 45.5936 43.2368 45.3737 43.4087 45.2116C43.5806 45.0494 43.8137 44.9583 44.0568 44.9583C44.3 44.9583 44.5331 45.0494 44.705 45.2116C44.8769 45.3737 44.9735 45.5936 44.9735 45.8229V53.6042C44.9735 54.0832 44.5647 54.4688 44.0568 54.4688Z" fill="#AFE5FB"/>
<path d="M34.8902 59.6563C34.6903 59.655 34.4964 59.5923 34.3377 59.4776C34.1791 59.363 34.0644 59.2026 34.0112 59.021C33.9579 58.8393 33.9689 58.6462 34.0425 58.4709C34.1161 58.2957 34.2483 58.1478 34.419 58.0499L43.5857 52.8624C43.689 52.804 43.8034 52.7654 43.9225 52.7488C44.0416 52.7321 44.163 52.7378 44.2798 52.7654C44.3966 52.793 44.5065 52.8421 44.6032 52.9097C44.6999 52.9774 44.7815 53.0624 44.8433 53.1598C44.9052 53.2572 44.9461 53.3652 44.9638 53.4775C44.9814 53.5898 44.9754 53.7043 44.9461 53.8145C44.9169 53.9246 44.8649 54.0283 44.7931 54.1195C44.7214 54.2107 44.6313 54.2876 44.528 54.346L35.3613 59.5335C35.2193 59.6147 35.0562 59.6572 34.8902 59.6563Z" fill="white"/>
<path d="M53.2235 59.6563C53.0574 59.6572 52.8943 59.6147 52.7523 59.5335L43.5857 54.346C43.4824 54.2876 43.3923 54.2107 43.3206 54.1195C43.2488 54.0283 43.1968 53.9246 43.1675 53.8145C43.1383 53.7043 43.1323 53.5898 43.1499 53.4775C43.1675 53.3652 43.2085 53.2572 43.2703 53.1598C43.3322 53.0624 43.4138 52.9774 43.5105 52.9097C43.6072 52.8421 43.7171 52.793 43.8339 52.7654C43.9507 52.7378 44.0721 52.7321 44.1912 52.7488C44.3103 52.7654 44.4247 52.804 44.528 52.8624L53.6947 58.0499C53.8668 58.147 54.0003 58.2948 54.0749 58.4704C54.1494 58.646 54.1608 58.8399 54.1073 59.0222C54.0538 59.2045 53.9384 59.3653 53.7788 59.4798C53.6191 59.5943 53.4241 59.6563 53.2235 59.6563ZM25.6465 59.4142C24.4114 59.4128 23.2274 58.9494 22.3541 58.1257C21.4807 57.302 20.9895 56.1853 20.988 55.0204V53.0595H22.8213V55.0204C22.8213 56.4902 24.0882 57.685 25.6465 57.685C27.2048 57.685 28.4717 56.4902 28.4717 55.0204V53.0595H30.305V55.0204C30.304 56.1854 29.8129 57.3025 28.9395 58.1263C28.0661 58.9501 26.8817 59.4133 25.6465 59.4142Z" fill="white"/>
<path d="M29.3902 54.1316C29.241 54.1313 29.0942 54.0968 28.9623 54.0312C28.8304 53.9655 28.7174 53.8706 28.633 53.7546L27.8667 52.6963H23.4575L22.8543 53.6941C22.7731 53.8375 22.649 53.9552 22.4975 54.0327C22.3459 54.1101 22.1736 54.1439 22.0018 54.1298C21.8307 54.1199 21.6659 54.0649 21.5262 53.9711C21.3865 53.8772 21.2775 53.7483 21.2117 53.599L20.1795 51.2715C19.9778 50.4536 20.1502 49.7706 20.603 49.2397C20.8798 48.9147 21.241 48.6778 21.6407 48.5394C21.7855 48.0501 22.077 47.6195 22.4895 47.2892C22.7877 47.0517 23.1371 46.8781 23.5135 46.7805C23.8899 46.6829 24.2843 46.6635 24.6693 46.7238L28.9337 47.3947C29.6597 47.5088 30.2922 47.8841 30.7175 48.453C31.1392 49.0201 31.2987 49.7083 31.1685 50.3896L30.272 53.4935C30.2194 53.6763 30.1046 53.8377 29.9453 53.953C29.786 54.0682 29.591 54.131 29.3902 54.1316ZM24.2257 48.4184C24.024 48.4186 23.8289 48.4866 23.6757 48.6103C23.5802 48.6855 23.5036 48.7797 23.4513 48.8862C23.399 48.9926 23.3723 49.1086 23.3732 49.2259C23.3732 49.7032 22.9625 50.1337 22.4565 50.1337C22.375 50.1332 22.2943 50.15 22.2206 50.1829C22.1469 50.2158 22.0821 50.264 22.0308 50.3238C21.9795 50.3836 21.9432 50.4535 21.9246 50.5284C21.9059 50.6033 21.9054 50.6811 21.923 50.7562L22.1797 51.3251C22.2641 51.2131 22.3757 51.1219 22.5052 51.059C22.6347 50.9961 22.7783 50.9635 22.924 50.9637H28.3507C28.4776 50.9638 28.603 50.9888 28.7192 51.037C28.8353 51.0852 28.9396 51.1557 29.0253 51.2438L29.3847 50.004C29.4033 49.8051 29.3447 49.6066 29.2197 49.4455C29.1523 49.3535 29.066 49.2753 28.9658 49.2156C28.8656 49.1559 28.7537 49.1159 28.6367 49.0979L24.3723 48.427C24.3236 48.4217 24.2747 48.4188 24.2257 48.4184ZM17.4167 67.4375C17.1736 67.4375 16.9404 67.3464 16.7685 67.1843C16.5966 67.0221 16.5 66.8022 16.5 66.5729V64.3423C16.5 62.8137 17.5212 61.4252 19.0373 60.8891L22.4877 59.6683V57.8302C22.4877 57.6009 22.5842 57.381 22.7562 57.2189C22.9281 57.0567 23.1612 56.9657 23.4043 56.9657C23.6474 56.9657 23.8806 57.0567 24.0525 57.2189C24.2244 57.381 24.321 57.6009 24.321 57.8302V60.2684C24.321 60.4442 24.2641 60.6159 24.158 60.7605C24.0519 60.9051 23.9015 61.0157 23.727 61.0776L19.6827 62.5076C19.2875 62.6489 18.9469 62.8999 18.706 63.2274C18.4651 63.5549 18.3352 63.9437 18.3333 64.3423V66.5729C18.3333 66.8022 18.2368 67.0221 18.0648 67.1843C17.8929 67.3464 17.6598 67.4375 17.4167 67.4375ZM33.9167 67.4375C33.6736 67.4375 33.4404 67.3464 33.2685 67.1843C33.0966 67.0221 33 66.8022 33 66.5729V64.3423C33 63.5296 32.4573 62.7929 31.6525 62.5059L27.6063 61.0759C27.4317 61.0142 27.2812 60.9036 27.175 60.759C27.0688 60.6143 27.0121 60.4426 27.0123 60.2666V57.8285C27.0123 57.5992 27.1089 57.3793 27.2808 57.2172C27.4527 57.055 27.6859 56.9639 27.929 56.9639C28.1721 56.9639 28.4053 57.055 28.5772 57.2172C28.7491 57.3793 28.8457 57.5992 28.8457 57.8285V59.6666L32.2978 60.8874C33.041 61.1543 33.6811 61.6273 34.1337 62.244C34.5863 62.8607 34.8302 63.5922 34.8333 64.3423V66.5729C34.8333 66.8022 34.7368 67.0221 34.5649 67.1843C34.3929 67.3464 34.1598 67.4375 33.9167 67.4375Z" fill="white"/>
<path d="M25.6667 62.8033C24.8238 62.8024 24.0158 62.4862 23.4199 61.9241C22.8239 61.362 22.4886 60.5999 22.4877 59.8049V57.3806H24.321V59.8049C24.3339 60.1332 24.4812 60.444 24.7319 60.672C24.9827 60.8999 25.3175 61.0273 25.6658 61.0273C26.014 61.0273 26.3488 60.8999 26.5996 60.672C26.8503 60.444 26.9977 60.1332 27.0105 59.8049V57.3806H28.8438V59.8049C28.8438 61.4563 27.4193 62.8033 25.6667 62.8033ZM62.3132 59.4141C61.0781 59.4128 59.894 58.9494 59.0207 58.1257C58.1474 57.302 57.6561 56.1852 57.6547 55.0203V53.0594H59.488V55.0203C59.488 56.4901 60.7548 57.685 62.3132 57.685C63.8715 57.685 65.1383 56.4901 65.1383 55.0203V53.0594H66.9717V55.0203C66.9707 56.1854 66.4796 57.3024 65.6062 58.1262C64.7327 58.95 63.5484 59.4132 62.3132 59.4141Z" fill="white"/>
<path d="M66.0568 54.1316C65.9077 54.1313 65.7608 54.0969 65.6289 54.0312C65.497 53.9655 65.384 53.8706 65.2997 53.7546L64.5333 52.6964H60.1242L59.521 53.6941C59.4392 53.837 59.315 53.9544 59.1636 54.0318C59.0122 54.1092 58.8401 54.1433 58.6685 54.1298C58.4973 54.1199 58.3325 54.0649 58.1928 53.9711C58.0532 53.8772 57.9442 53.7483 57.8783 53.599L56.8462 51.2715C56.6445 50.4536 56.8168 49.7706 57.2697 49.2398C57.5465 48.9147 57.9077 48.6778 58.3073 48.5394C58.4522 48.0501 58.7437 47.6195 59.1562 47.2893C59.4545 47.0518 59.8039 46.8783 60.1802 46.7807C60.5566 46.6831 60.9509 46.6637 61.336 46.7238L65.6003 47.3947C66.3263 47.5089 66.9588 47.8841 67.3842 48.453C67.8058 49.0202 67.9653 49.7084 67.8352 50.3897L66.9387 53.4935C66.8861 53.6763 66.7713 53.8377 66.612 53.953C66.4526 54.0682 66.2576 54.131 66.0568 54.1316ZM60.8923 48.4184C60.6906 48.4186 60.4956 48.4866 60.3423 48.6103C60.2469 48.6856 60.1703 48.7798 60.118 48.8862C60.0657 48.9926 60.039 49.1086 60.0398 49.2259C60.0398 49.7032 59.6292 50.1337 59.1232 50.1337C59.0416 50.1332 58.961 50.15 58.8873 50.1829C58.8136 50.2158 58.7487 50.264 58.6975 50.3238C58.6462 50.3836 58.6099 50.4535 58.5912 50.5284C58.5726 50.6033 58.572 50.6811 58.5897 50.7562L58.8463 51.3251C58.9307 51.2132 59.0424 51.1219 59.1719 51.059C59.3014 50.9962 59.445 50.9635 59.5907 50.9637H65.0173C65.1442 50.9638 65.2697 50.9888 65.3858 51.037C65.502 51.0852 65.6062 51.1557 65.692 51.2439L66.0513 50.004C66.07 49.8052 66.0113 49.6067 65.8863 49.4455C65.819 49.3535 65.7326 49.2754 65.6324 49.2156C65.5322 49.1559 65.4203 49.1159 65.3033 49.098L61.039 48.427C60.9903 48.4217 60.9413 48.4189 60.8923 48.4184ZM54.0833 67.4375C53.8402 67.4375 53.607 67.3464 53.4351 67.1843C53.2632 67.0221 53.1667 66.8022 53.1667 66.5729V64.3423C53.1667 62.8137 54.1878 61.4252 55.704 60.8892L59.1543 59.6684V57.8303C59.1543 57.601 59.2509 57.381 59.4228 57.2189C59.5947 57.0568 59.8279 56.9657 60.071 56.9657C60.3141 56.9657 60.5473 57.0568 60.7192 57.2189C60.8911 57.381 60.9877 57.601 60.9877 57.8303V60.2684C60.9877 60.4442 60.9308 60.6159 60.8247 60.7605C60.7185 60.9051 60.5682 61.0157 60.3937 61.0776L56.3493 62.5076C55.9541 62.6489 55.6136 62.8999 55.3727 63.2274C55.1318 63.5549 55.0018 63.9437 55 64.3423V66.5729C55 66.8022 54.9034 67.0221 54.7315 67.1843C54.5596 67.3464 54.3264 67.4375 54.0833 67.4375ZM70.5833 67.4375C70.3402 67.4375 70.107 67.3464 69.9351 67.1843C69.7632 67.0221 69.6667 66.8022 69.6667 66.5729V64.3423C69.6667 63.5296 69.124 62.793 68.3192 62.5059L64.273 61.0759C64.0983 61.0142 63.9478 60.9036 63.8417 60.759C63.7355 60.6144 63.6787 60.4426 63.679 60.2667V57.8285C63.679 57.5992 63.7756 57.3793 63.9475 57.2172C64.1194 57.055 64.3525 56.9639 64.5957 56.9639C64.8388 56.9639 65.0719 57.055 65.2438 57.2172C65.4157 57.3793 65.5123 57.5992 65.5123 57.8285V59.6666L68.9645 60.8874C69.7077 61.1543 70.3477 61.6273 70.8003 62.244C71.2529 62.8607 71.4969 63.5923 71.5 64.3423V66.5729C71.5 66.8022 71.4034 67.0221 71.2315 67.1843C71.0596 67.3464 70.8264 67.4375 70.5833 67.4375Z" fill="white"/>
<path d="M62.3333 62.8033C61.4905 62.8024 60.6825 62.4862 60.0865 61.9241C59.4905 61.362 59.1553 60.5999 59.1543 59.805V57.3807H60.9877V59.805C61.0005 60.1332 61.1478 60.444 61.3986 60.672C61.6494 60.9 61.9841 61.0273 62.3324 61.0273C62.6807 61.0273 63.0154 60.9 63.2662 60.672C63.517 60.444 63.6643 60.1332 63.6772 59.805V57.3807H65.5105V59.805C65.5105 61.4563 64.086 62.8033 62.3333 62.8033Z" fill="white"/>
</svg>
