<svg width="95" height="89" viewBox="0 0 95 89" fill="none" xmlns="http://www.w3.org/2000/svg">
<g clip-path="url(#clip0_9_296)">
<path d="M68.9307 82.1512C68.4668 82.8117 67.706 83.2115 66.8711 83.2115H28.1289C27.2939 83.2115 26.5146 82.8117 26.0693 82.1512C25.624 81.508 25.5684 80.7084 25.8838 80.0131C26.8301 78.0314 28.9453 76.7625 31.2646 76.7625H35.9033V72.9383H59.1152V76.7625H63.7539C66.0732 76.7625 68.1699 78.0488 69.1348 80.0131C69.4502 80.7084 69.376 81.5254 68.9307 82.1512ZM30.9307 27.3605C29.6504 31.8279 25.2715 35.1307 20.1133 35.1307C13.9346 35.1133 8.90625 30.4199 8.90625 24.6314C8.90625 19.7816 12.4316 15.6967 17.2002 14.4973C17.0703 14.9666 17.1445 14.6537 17.126 24.6314C17.126 26.1611 18.4619 27.4127 20.0947 27.4127C30.6895 27.3953 30.4111 27.4474 30.9307 27.3605Z" fill="#AFE5FB"/>
<path d="M31.3018 24.6314C31.3018 25.1355 30.8564 25.5527 30.3184 25.5527H20.1133C19.5752 25.5527 19.1299 25.1355 19.1299 24.6314V15.0709C19.1299 14.5494 19.5752 14.1496 20.1133 14.1496C26.292 14.1496 31.3018 18.843 31.3018 24.6314ZM30.3184 40.7453H9.88965C9.35156 40.7453 8.90625 40.3281 8.90625 39.824C8.90625 39.3199 9.35156 38.9027 9.88965 38.9027H30.3184C30.8564 38.9027 31.3018 39.3199 31.3018 39.824C31.3018 40.3281 30.8564 40.7453 30.3184 40.7453ZM30.3184 46.2035H9.88965C9.35156 46.2035 8.90625 45.7863 8.90625 45.2822C8.90625 44.7781 9.35156 44.3609 9.88965 44.3609H30.3184C30.8564 44.3609 31.3018 44.7781 31.3018 45.2822C31.3018 45.8037 30.8564 46.2035 30.3184 46.2035ZM30.3184 51.6791H9.88965C9.35156 51.6791 8.90625 51.2619 8.90625 50.7578C8.90625 50.2537 9.35156 49.8365 9.88965 49.8365H30.3184C30.8564 49.8365 31.3018 50.2537 31.3018 50.7578C31.3018 51.2619 30.8564 51.6791 30.3184 51.6791ZM49.4297 36.2432V49.8191C49.4297 50.8447 48.5391 51.6791 47.4443 51.6791H43.3252C42.2305 51.6791 41.3398 50.8447 41.3398 49.8191V36.2432C41.3398 35.2176 42.2119 34.3832 43.3252 34.3832H47.4443C48.5391 34.3832 49.4297 35.2176 49.4297 36.2432ZM61.6572 26.6826V49.8191C61.6572 50.8447 60.7666 51.6791 59.6719 51.6791H55.5527C54.458 51.6791 53.5674 50.8447 53.5674 49.8191V26.6826C53.5674 25.657 54.4395 24.8226 55.5527 24.8226H59.6719C60.7666 24.8226 61.6572 25.657 61.6572 26.6826ZM73.8662 36.2432V49.8191C73.8662 50.8447 72.9756 51.6791 71.8809 51.6791H67.7432C66.6484 51.6791 65.7578 50.8447 65.7578 49.8191V36.2432C65.7578 35.2176 66.6484 34.3832 67.7432 34.3832H71.8809C72.9756 34.3832 73.8662 35.2176 73.8662 36.2432ZM86.0938 30.5764V49.8191C86.0938 50.8447 85.2031 51.6791 84.1084 51.6791H79.9707C78.876 51.6791 77.9854 50.8447 77.9854 49.8191V30.5764C77.9854 29.5508 78.876 28.7164 79.9707 28.7164H84.1084C85.2031 28.7164 86.0938 29.5508 86.0938 30.5764Z" fill="#EC9E41"/>
<path d="M69.8213 29.603C69.543 29.603 69.2647 29.4813 69.0606 29.2727L57.5195 16.4094L46.0713 26.7696C45.6816 27.1172 45.0508 27.1172 44.6797 26.7522C44.3086 26.3871 44.3086 25.7961 44.6982 25.4485L56.9258 14.393C57.1299 14.2192 57.3897 14.1149 57.668 14.1323C57.9463 14.1496 58.2061 14.2713 58.3731 14.4625L70.0068 27.4301L81.4922 19.8338C81.9375 19.5383 82.5498 19.6426 82.8652 20.0598C83.1807 20.477 83.0693 21.0506 82.624 21.3461L70.3965 29.4465C70.2295 29.5508 70.0254 29.603 69.8213 29.603ZM47.5 62.4391C46.7578 62.4391 46.1455 63.0127 46.1455 63.708C46.1455 64.4033 46.7578 64.977 47.5 64.977C48.2422 64.977 48.8545 64.4033 48.8545 63.708C48.8545 63.0127 48.2422 62.4391 47.5 62.4391Z" fill="#EC9E41"/>
<path d="M90.0459 5.78845H4.9541C2.20801 5.78845 0 7.85701 0 10.4123C0 11.8898 0 70.0006 0 66.4545C0 69.0098 2.20801 71.0957 4.9541 71.0957H90.0645C92.792 71.0957 95.0185 69.0098 95.0185 66.4545C95.0185 59.3797 95.0185 17.4523 95.0185 10.4123C95 7.85701 92.7734 5.78845 90.0459 5.78845ZM47.5 66.8369C45.6631 66.8369 44.1602 65.4289 44.1602 63.708C44.1602 61.9871 45.6631 60.5791 47.5 60.5791C49.3369 60.5791 50.8398 61.9871 50.8398 63.708C50.8398 65.4289 49.3369 66.8369 47.5 66.8369ZM91.0479 56.3029H3.95215V10.4123C3.95215 9.90818 4.39746 9.49099 4.93555 9.49099H90.0459C90.584 9.49099 91.0293 9.90818 91.0293 10.4123V56.3029H91.0479Z" fill="#EC9E41"/>
</g>
<defs>
<clipPath id="clip0_9_296">
<rect width="95" height="89" fill="white"/>
</clipPath>
</defs>
</svg>
