<svg width="43" height="42" viewBox="0 0 43 42" fill="none" xmlns="http://www.w3.org/2000/svg">
<path d="M41.534 33.9005C41.534 32.6963 40.4953 31.7197 39.2198 31.7197H3.0959C1.82046 31.7197 0.786066 32.6963 0.786066 33.9005C0.786066 35.1047 1.82042 36.0813 3.0959 36.0813H39.2198C40.4953 36.0813 41.534 35.1047 41.534 33.9005ZM10.7835 41.1507C12.2913 41.1507 13.5141 39.992 13.5141 38.5726V36.909H8.05297V38.5726C8.05297 39.992 9.28019 41.1507 10.7835 41.1507ZM31.5322 41.1507C33.0399 41.1507 34.2628 39.992 34.2628 38.5726V36.909H28.8016V38.5726C28.8016 39.992 30.0289 41.1507 31.5322 41.1507ZM21.1579 0.380981C19.1681 0.380981 17.5464 1.90798 17.5464 3.78674V5.61997H24.7694V3.78674C24.7694 1.90798 23.1477 0.380981 21.1579 0.380981ZM1.39657 12.2878V13.8261H0.119873V20.0044H3.49033V13.8261H2.27318V12.2878C2.27318 12.1702 2.37461 12.0744 2.49916 12.0744H4.53349V30.892H37.7823V12.0744H39.8176C39.9422 12.0744 40.0436 12.1702 40.0436 12.2878V13.826H38.8254V20.0044H42.1958V13.8261H40.9202V12.2878C40.9202 11.7138 40.4254 11.2468 39.8176 11.2468H37.7823V8.29323C37.7823 7.27522 36.9013 6.44759 35.8231 6.44759H6.49267C5.41446 6.44759 4.53349 7.27526 4.53349 8.29323V11.2468H2.49916C1.89135 11.2468 1.39657 11.7137 1.39657 12.2878ZM10.7835 29.1333C9.57382 29.1333 8.59205 28.2022 8.59205 27.0642C8.59205 25.922 9.57382 24.9909 10.7835 24.9909C11.9932 24.9909 12.9749 25.922 12.9749 27.0642C12.975 28.2022 11.9932 29.1333 10.7835 29.1333ZM25.8082 30.3665H16.7355V29.5388H25.8082V30.3665ZM25.2033 26.6504V27.478H17.3404V26.6504H25.2033ZM17.8005 24.5854V23.7577H24.7387V24.5854H17.8005ZM31.5322 29.1333C30.3225 29.1333 29.3408 28.2022 29.3408 27.0642C29.3408 25.922 30.3225 24.9909 31.5322 24.9909C32.7419 24.9909 33.7237 25.922 33.7237 27.0642C33.7237 28.2022 32.7419 29.1333 31.5322 29.1333ZM21.5961 9.69197H34.3416V20.7741H21.5961V9.69197ZM7.97412 9.69197H20.7196V20.7741H7.97412V9.69197Z" fill="#A90000"/>
<path d="M3.36762 23.3563H2.49097V24.184H3.36762V23.3563Z" fill="#A90000"/>
<path d="M3.36762 25.0118H2.49097V25.8396H3.36762V25.0118Z" fill="#A90000"/>
<path d="M3.36762 21.7009H2.49097V22.5286H3.36762V21.7009Z" fill="#A90000"/>
<path d="M3.36762 28.3224H2.49097V28.9802H3.36762V28.3224Z" fill="#A90000"/>
<path d="M3.36762 26.6669H2.49097V27.4946H3.36762V26.6669Z" fill="#A90000"/>
<path d="M39.825 23.3563H38.9484V24.184H39.825V23.3563Z" fill="#A90000"/>
<path d="M39.825 28.3224H38.9484V28.9802H39.825V28.3224Z" fill="#A90000"/>
<path d="M39.825 26.6669H38.9484V27.4946H39.825V26.6669Z" fill="#A90000"/>
<path d="M39.825 25.0118H38.9484V25.8396H39.825V25.0118Z" fill="#A90000"/>
<path d="M39.825 21.7009H38.9484V22.5286H39.825V21.7009Z" fill="#A90000"/>
<path d="M29.8929 4.59766H29.0162V5.42537H29.8929V4.59766Z" fill="#A90000"/>
<path d="M31.6463 4.59766H30.7697V5.42537H31.6463V4.59766Z" fill="#A90000"/>
<path d="M35.1307 4.59766H34.2761V5.42537H35.1307V4.59766Z" fill="#A90000"/>
<path d="M33.3994 4.59766H32.5227V5.42537H33.3994V4.59766Z" fill="#A90000"/>
<path d="M28.1402 4.59766H27.2635V5.42537H28.1402V4.59766Z" fill="#A90000"/>
<path d="M9.48212 4.59766H8.60547V5.42537H9.48212V4.59766Z" fill="#A90000"/>
<path d="M11.2348 4.59766H10.3582V5.42537H11.2348V4.59766Z" fill="#A90000"/>
<path d="M7.7287 4.59766H6.85205V5.42537H7.7287V4.59766Z" fill="#A90000"/>
<path d="M14.715 4.59766H13.8649V5.42537H14.715V4.59766Z" fill="#A90000"/>
<path d="M12.9883 4.59766H12.1117V5.42537H12.9883V4.59766Z" fill="#A90000"/>
</svg>
