<svg width="84" height="96" viewBox="0 0 84 96" fill="none" xmlns="http://www.w3.org/2000/svg">
<path d="M63.1224 71.573L72.4903 92.1418C73.3989 94.137 75.6375 95.3592 78.0102 95.3592C78.7213 95.3592 79.4444 95.2496 80.1475 95.0176C83.1953 94.0125 84.709 91.0961 83.5277 88.5031L73.7427 67.019C73.4676 66.4144 73.0575 65.8609 72.5348 65.3884L57.4037 51.7031C56.6078 56.3505 55.5477 60.3603 54.4359 63.7171L63.1224 71.573Z" fill="white"/>
<path d="M32.9488 14.1205H14.9512V14.8109H32.9488V14.1205Z" fill="white"/>
<path d="M29.1992 18.2639H11.2017V18.9544H29.1992V18.2639Z" fill="white"/>
<path d="M25.8247 16.1921H0V16.8826H25.8247V16.1921Z" fill="white"/>
<path d="M54.9289 7.37336C53.3053 7.53046 51.8058 6.80739 51.0809 5.65167L37.7305 6.94475C37.5388 7.62472 37.4346 8.3337 37.4346 9.06363C37.4346 14.0696 42.2045 18.1273 48.088 18.1273C53.9724 18.1273 58.7413 14.0696 58.7413 9.06363C58.7413 7.83701 58.4535 6.66761 57.9345 5.60051C57.364 6.54837 56.2655 7.24405 54.9289 7.37336ZM53.0652 1.04977C51.5794 0.380672 49.8863 0 48.088 0C43.9369 0 40.3427 2.02139 38.5842 4.96928L50.64 3.80189C50.7731 2.56682 51.7215 1.50335 53.0652 1.04977ZM60.4075 42.1575C61.3417 43.0752 62.247 44.0355 63.1197 45.039C63.4501 43.6375 63.7115 42.2087 63.9085 40.7593L60.8564 42C60.7091 42.0601 60.5591 42.1108 60.4075 42.1575ZM51.3593 22.562C48.5425 19.886 44.7045 19.0969 41.8025 19.712C41.2665 19.8256 40.7717 20.0105 40.3176 20.2518L24.7883 27.1204C23.1647 27.8386 22.3764 29.4423 22.9162 30.9299L27.9161 44.7195C28.4185 46.104 29.9166 46.9931 31.5345 46.9931C31.9043 46.9931 32.2807 46.9468 32.6524 46.8493C34.6514 46.3244 35.7722 44.5209 35.1552 42.8198L31.0871 31.5994L37.1978 28.8969C37.2419 29.0576 37.2888 29.2179 37.3427 29.3766C38.6401 35.0154 40.9412 43.1018 39.8498 50.0272C39.5392 54.5022 40.7035 55.664 43.3806 55.9761C42.0222 61.343 40.3735 65.2875 39.1671 67.7419L19.6486 64.9471C16.4233 64.4823 13.3721 66.3341 12.83 69.0765C12.2874 71.8194 14.4602 74.4164 17.6837 74.8776L41.5946 78.3017C41.9237 78.3488 42.2528 78.3722 42.5785 78.3722C44.6353 78.3722 46.5752 77.4577 47.6557 75.9222C47.9251 75.5395 54.1741 66.4871 56.6732 49.4048C56.7096 49.267 56.7466 49.1297 56.7792 48.9863C57.1201 46.4944 57.3062 44.2917 57.337 42.2272C56.5979 42.0371 55.918 41.6983 55.3503 41.2278L42.7234 30.7539C40.7987 29.1567 40.7594 26.5246 42.6353 24.8867C43.5619 24.0786 44.8025 23.6343 46.1287 23.6343C47.4076 23.6343 48.6164 24.0524 49.5321 24.8126L59.7219 33.2647L60.078 33.1201C58.5093 30.743 56.757 28.3321 55.1386 26.3731C53.6945 24.6245 52.3593 23.2399 51.3593 22.562Z" fill="white"/>
<path d="M58.7551 41.4793C59.3086 41.4793 59.8664 41.3762 60.3872 41.1647L76.4066 34.6526C78.2939 33.8852 79.0931 31.9609 78.1916 30.3552C77.2896 28.7496 75.0302 28.0704 73.1405 28.8366L59.5061 34.3795L48.7722 25.4754C47.2746 24.2331 44.8764 24.2588 43.4157 25.5334C41.9555 26.8079 41.9858 28.8483 43.4839 30.0906L56.1102 40.5641C56.8333 41.1639 57.7873 41.4793 58.7551 41.4793Z" fill="white"/>
</svg>
