<svg width="65" height="34" viewBox="0 0 65 34" fill="none" xmlns="http://www.w3.org/2000/svg">
<path d="M60.3198 22.2874V26.1024C60.3198 27.3345 59.1908 28.3333 57.7981 28.3333H6.9306C5.593 28.3333 4.31014 27.8632 3.36434 27.0264L2.31982 26.1024V19.231C2.31982 17.9989 3.44887 17 4.84156 17H49.2747L56.7769 18.4167C58.8446 18.7959 60.3198 20.4134 60.3198 22.2874Z" fill="#041759"/>
<path d="M48.7199 16.9999H25.5199V5.08685C25.5199 4.36384 26.0727 3.77771 26.7546 3.77771H32.933C36.2654 3.77771 39.4284 5.33505 41.5786 8.03446L48.7199 16.9999Z" fill="white"/>
<path d="M30.1601 3.77771H21.3501C19.8092 3.77771 18.5601 4.36384 18.5601 5.08685V16.9999H30.1601V3.77771Z" fill="white"/>
<path d="M15.08 33.9998C18.2833 33.9998 20.88 31.4628 20.88 28.3332C20.88 25.2036 18.2833 22.6665 15.08 22.6665C11.8768 22.6665 9.28003 25.2036 9.28003 28.3332C9.28003 31.4628 11.8768 33.9998 15.08 33.9998Z" fill="white"/>
<path d="M49.8802 33.9998C53.0835 33.9998 55.6802 31.4628 55.6802 28.3332C55.6802 25.2036 53.0835 22.6665 49.8802 22.6665C46.677 22.6665 44.0802 25.2036 44.0802 28.3332C44.0802 31.4628 46.677 33.9998 49.8802 33.9998Z" fill="white"/>
<path d="M55.7941 14.6061L48.7373 13.0692L41.7463 4.62364C39.3137 1.68524 35.7566 0 31.9868 0C28.4496 0 29.3168 0 25.6986 0C24.3128 0 23.1853 1.15038 23.1853 2.56428V12.9494H3.76999C1.6911 12.9494 0 14.6748 0 16.7959V24.6942C0 25.0341 0.132559 25.3603 0.36822 25.6006L1.4089 26.6628C2.59557 27.8735 4.17355 28.5406 5.85205 28.5406H7.70105C8.28219 31.645 10.9593 34 14.1689 34C17.3785 34 20.0556 31.645 20.6367 28.5406H41.9633C42.5445 31.645 45.2214 34 48.4308 34C51.6404 34 54.3175 31.645 54.8986 28.5406H56.55C58.6289 28.5406 60.32 26.8152 60.32 24.6942V20.309C60.3198 17.5595 58.4136 15.1605 55.7941 14.6061ZM39.8263 6.27846L45.3485 12.9496H30.9235V2.5644H31.987C35.0151 2.5644 37.8722 3.91831 39.8263 6.27846ZM25.6987 2.5644H28.4102V12.9496H25.6987V2.5644ZM14.1688 31.4358C11.9217 31.4358 10.0938 29.5709 10.0938 27.2783C10.0938 24.9857 11.9217 23.1207 14.1688 23.1207C16.4158 23.1207 18.2437 24.9857 18.2437 27.2783C18.2437 29.5709 16.4158 31.4358 14.1688 31.4358ZM48.4306 31.4358C46.1839 31.4358 44.3559 29.5709 44.3559 27.2783C44.3559 24.9857 46.1838 23.1207 48.4306 23.1207C50.6776 23.1207 52.5055 24.9857 52.5055 27.2783C52.5055 29.5709 50.6776 31.4358 48.4306 31.4358ZM57.8064 24.6942C57.8064 25.4013 57.2429 25.9763 56.5498 25.9763H54.8925C54.2964 22.8911 51.6268 20.5563 48.4307 20.5563C45.2348 20.5563 42.5653 22.8911 41.9691 25.9763H31.2998H20.6306C20.0345 22.8911 17.3649 20.5563 14.1688 20.5563C10.9726 20.5563 8.30304 22.8911 7.70694 25.9763H5.85193C4.84472 25.9763 3.89819 25.5762 3.18614 24.8497L2.51332 24.1629V16.7959C2.51332 16.0887 3.07691 15.5137 3.76999 15.5137C8.68894 15.5137 43.4401 15.5137 47.9222 15.5137L55.2766 17.1154C56.7425 17.4256 57.8066 18.7684 57.8066 20.3089L57.8064 24.6942Z" fill="black"/>
<path d="M35.7461 17H33.8435C32.0267 17 32.0245 20.7778 33.8435 20.7778H35.7461C36.5049 20.7778 37.1201 19.9321 37.1201 18.8889C37.1201 17.8457 36.5049 17 35.7461 17Z" fill="black"/>
<path fill-rule="evenodd" clip-rule="evenodd" d="M25.1407 7.98451V13.8602C25.1407 14.4356 24.6274 14.9026 23.9948 14.9026C23.3629 14.9026 22.849 14.4356 22.849 13.8602V7.98451C22.849 7.40909 23.3629 6.94208 23.9948 6.94208C24.6274 6.94208 25.1407 7.40909 25.1407 7.98451ZM63.8142 18.4088H60.6848C60.0523 18.4088 59.5389 17.9413 59.5389 17.3664C59.5389 16.791 60.0523 16.324 60.6848 16.324H63.8142C64.4467 16.324 64.9601 16.791 64.9601 17.3664C64.9601 17.9413 64.4467 18.4088 63.8142 18.4088ZM19.2114 2.08487C19.2114 0.932977 20.2375 0 21.5031 0H25.7469C26.7902 0 27.7018 0.640575 27.9647 1.55896L28.6379 3.91121C28.7273 4.22342 28.6528 4.55595 28.4357 4.81135C28.2186 5.06675 27.884 5.21633 27.5293 5.21633H20.3572C19.7241 5.21633 19.2114 4.74932 19.2114 4.1739V2.08487ZM25.7469 2.08487H21.5031V3.13147H26.0465L25.7469 2.08487ZM39.8263 20.8466C39.1342 20.8466 38.6174 20.7011 38.2679 20.4348C37.9001 20.1549 37.7053 19.7473 37.7053 19.2042C37.7053 18.9551 37.7511 18.7315 37.8394 18.5324C37.9322 18.3239 38.0685 18.1482 38.2467 18.0044C38.4243 17.8616 38.634 17.7584 38.8775 17.6969C39.0993 17.639 39.415 17.6077 39.8263 17.6077H41.1051C41.4134 17.6077 41.6334 17.6838 41.7749 17.8037C41.9204 17.9278 42.0144 18.1274 42.0144 18.4161V21.8671C42.0144 22.1225 41.9359 22.3122 41.8053 22.4441C41.6603 22.59 41.4718 22.6667 41.2358 22.6667C41.01 22.6667 40.8232 22.5916 40.6749 22.4441C40.5414 22.3107 40.4611 22.1189 40.4611 21.8614V20.8466H39.8263ZM40.0675 18.7945C39.8722 18.7945 39.7089 18.8076 39.58 18.8368C39.4957 18.8555 39.4299 18.8769 39.3875 18.9134C39.3055 18.9942 39.2711 19.0979 39.2711 19.2225C39.2711 19.3246 39.2901 19.4091 39.341 19.4721C39.3909 19.5336 39.4665 19.5743 39.5616 19.6014C39.6968 19.64 39.8659 19.6572 40.0675 19.6572H40.4611V18.7945H40.0675ZM34.985 17.5311C35.3998 17.5311 35.7693 17.5916 36.0948 17.7094C36.4299 17.8308 36.7141 18.0065 36.9479 18.2353C37.1793 18.4615 37.357 18.7356 37.479 19.0578C37.5964 19.37 37.6566 19.7129 37.6566 20.0866C37.6566 20.451 37.5993 20.7898 37.487 21.103C37.3701 21.4277 37.196 21.705 36.9674 21.9359C36.7365 22.1689 36.4494 22.3503 36.1039 22.4785C35.7688 22.6031 35.3889 22.6667 34.9649 22.6667C34.5387 22.6667 34.1605 22.6046 33.8305 22.4837C33.4902 22.3586 33.2031 22.1778 32.9694 21.9422C32.7385 21.7087 32.5643 21.434 32.4486 21.116C32.3368 20.809 32.2801 20.4682 32.2801 20.0929C32.2801 19.5816 32.3855 19.137 32.5907 18.7581C32.8044 18.364 33.1189 18.0601 33.5343 17.8464C33.9382 17.6385 34.4212 17.5311 34.985 17.5311ZM33.8465 20.0866C33.8465 20.3978 33.8981 20.6605 34.0093 20.8732C34.1095 21.0655 34.2413 21.2099 34.4109 21.3021C34.5811 21.3949 34.7684 21.4402 34.9718 21.4402C35.1299 21.4402 35.2755 21.4147 35.4078 21.3615C35.5384 21.3089 35.653 21.2291 35.7533 21.1233C35.8593 21.0118 35.9395 20.8711 35.9974 20.7017C36.0598 20.5187 36.0902 20.3134 36.0902 20.0866C36.0902 19.8625 36.0604 19.6603 35.9974 19.4805C35.9395 19.3142 35.8627 19.1761 35.7625 19.0687C35.6679 18.9681 35.5556 18.891 35.4244 18.8383C35.2904 18.7841 35.1437 18.7575 34.985 18.7575C34.761 18.7575 34.5622 18.8055 34.3891 18.904C34.2184 19.0015 34.0895 19.1469 33.9972 19.3366C33.8947 19.5482 33.8465 19.7984 33.8465 20.0866ZM30.4507 18.3338C30.4507 18.0695 30.5321 17.8772 30.6644 17.7474C30.8094 17.6062 30.9979 17.5311 31.2322 17.5311C31.466 17.5311 31.6528 17.6077 31.796 17.7526C31.9249 17.8824 32.0034 18.0737 32.0034 18.3338V21.7816C32.0034 22.0615 31.9163 22.2585 31.7805 22.3842C31.6436 22.5098 31.4259 22.5906 31.1142 22.5906H28.7073C28.4615 22.5906 28.2787 22.5275 28.1509 22.4248C28.0054 22.3081 27.9292 22.1564 27.9292 21.9682C27.9292 21.7848 28.0031 21.6331 28.1498 21.5122C28.2799 21.4043 28.4632 21.3396 28.7073 21.3396H30.4507V18.3338ZM27.79 21.8614C27.79 22.1215 27.7104 22.3138 27.5786 22.4457C27.4313 22.5921 27.2451 22.6667 27.0188 22.6667C26.7839 22.6667 26.596 22.5916 26.4505 22.4477C26.3181 22.3174 26.2373 22.1251 26.2373 21.8614V18.3338C26.2373 18.0695 26.3187 17.8772 26.4516 17.7474C26.5966 17.6062 26.7845 17.5311 27.0188 17.5311C27.2486 17.5311 27.4348 17.6067 27.5803 17.7516C27.7109 17.8819 27.79 18.0732 27.79 18.3338V21.8614ZM20.9296 20.9237C20.9296 20.7392 21.0012 20.5854 21.1416 20.4614C21.2802 20.3384 21.447 20.2769 21.6406 20.2769C21.8841 20.2769 22.0537 20.3571 22.1631 20.4874C22.2422 20.5807 22.3104 20.7006 22.3637 20.8487C22.4422 21.0415 22.5556 21.1927 22.7109 21.2938C22.8644 21.3944 23.0535 21.4402 23.2758 21.4402C23.4826 21.4402 23.6637 21.3985 23.8178 21.3089C23.9702 21.2208 24.0848 21.0848 24.1679 20.906C24.263 20.7011 24.3071 20.4442 24.3071 20.1356C24.3071 19.6827 24.2126 19.3309 24.0017 19.0849C23.8132 18.8654 23.5594 18.7575 23.242 18.7575C23.0478 18.7575 22.8828 18.7951 22.7498 18.8779C22.6066 18.9676 22.4857 19.1057 22.3797 19.2866C22.2829 19.4523 22.1912 19.567 22.1122 19.6353C22.005 19.7275 21.8486 19.7869 21.6343 19.7869C21.4407 19.7869 21.2745 19.7213 21.1376 19.5863C21.007 19.4575 20.9434 19.3085 20.9434 19.1401C20.9434 18.9056 21.0379 18.6543 21.243 18.3911C21.4321 18.1477 21.7025 17.9413 22.0583 17.7761C22.4066 17.614 22.8031 17.5311 23.2489 17.5311C23.6121 17.5311 23.9547 17.5905 24.2761 17.7083C24.6016 17.8277 24.8852 18.0018 25.1275 18.2301C25.3682 18.4573 25.5544 18.7304 25.6833 19.0499C25.8088 19.3606 25.8735 19.7124 25.8735 20.1054C25.8735 20.3457 25.8483 20.5729 25.7985 20.7866C25.748 21.0045 25.6718 21.2093 25.571 21.4011C25.4684 21.595 25.3453 21.7696 25.2003 21.926C25.2003 21.9265 25.1997 21.927 25.1992 21.9281C25.033 22.1043 24.8502 22.2466 24.6526 22.3544C24.4549 22.4623 24.2349 22.5421 23.9931 22.5932C23.7617 22.6416 23.5044 22.6667 23.2219 22.6667C22.8381 22.6667 22.5018 22.6088 22.2136 22.4967C21.9179 22.3826 21.6756 22.232 21.4854 22.0485C21.2951 21.8645 21.1565 21.6758 21.0677 21.4851C20.9743 21.2839 20.9296 21.0962 20.9296 20.9237ZM17.0686 18.8128C16.8233 18.8128 16.6463 18.7492 16.5271 18.6502C16.3925 18.5386 16.3203 18.3927 16.3203 18.2087C16.3203 18.0273 16.3919 17.8819 16.5271 17.7698C16.6463 17.6713 16.8233 17.6077 17.0686 17.6077H19.7006C19.8886 17.6077 20.0421 17.6369 20.1636 17.687C20.3154 17.7505 20.4277 17.8511 20.4993 17.9898C20.556 18.1003 20.5893 18.2421 20.5893 18.4161V21.7816C20.5893 22.0615 20.5028 22.2585 20.3664 22.3842C20.23 22.5098 20.0123 22.5906 19.7006 22.5906H16.9912C16.7494 22.5906 16.5718 22.527 16.4492 22.4248C16.3123 22.3107 16.2401 22.1632 16.2401 21.9802C16.2401 21.7921 16.3134 21.643 16.4492 21.5299C16.5718 21.4277 16.7494 21.3641 16.9912 21.3641H19.0366V20.5964H17.2462C17.0032 20.5964 16.8285 20.5312 16.7122 20.4301C16.5833 20.3186 16.5151 20.1758 16.5151 19.9986C16.5151 19.8182 16.5861 19.6754 16.7185 19.5654C16.8359 19.4685 17.0084 19.4064 17.2462 19.4064H19.0366V18.8128H17.0686Z" fill="white"/>
</svg>
