<svg width="88" height="96" viewBox="0 0 88 96" fill="none" xmlns="http://www.w3.org/2000/svg">
<path d="M2.1332 37.5296C2.28363 37.5296 2.43566 37.5118 2.58662 37.4752L11.4987 35.315L14.0272 48.4318L11.9183 79.0415C11.7788 81.0667 13.1382 82.8335 14.9535 82.989C16.7693 83.1446 18.355 81.63 18.4945 79.6048L20.25 54.1228L23.0073 53.462L28.067 79.708C28.4497 81.6939 30.2036 82.9566 31.9837 82.5299C33.7643 82.1031 34.8979 80.1484 34.5151 78.1625L29.1533 50.3472C29.4293 50.4846 29.7262 50.5554 30.0241 50.5554C30.5472 50.5554 31.0715 50.3422 31.4831 49.9118C32.3427 49.0131 32.3862 47.5078 31.5804 46.549L30.6197 45.4068L35.1118 35.9033C35.394 35.3064 35.4356 34.604 35.2262 33.9708C35.0168 33.338 34.5762 32.8336 34.0142 32.5838L24.0945 28.1757C23.9832 28.1264 23.8701 28.091 23.7571 28.0633C23.4373 27.958 23.09 27.9375 22.7411 28.0211L21.2449 28.3797C20.3513 30.184 18.7913 31.5659 16.8467 32.0322C16.3869 32.1422 15.9174 32.1981 15.4512 32.1981C13.6386 32.1981 11.9585 31.3521 10.7442 29.9758C10.6842 30.0882 10.5657 30.1503 10.4476 30.1141L6.80183 28.9908C6.66047 28.9474 6.57672 28.7827 6.61566 28.6251L8.50855 20.9867C8.54749 20.8291 8.69526 20.7358 8.83662 20.7792L9.76559 21.0655C9.8096 20.9829 9.85388 20.9002 9.90109 20.819C10.0705 20.5267 10.2572 20.2513 10.4575 19.9923L8.96784 19.5334C8.54376 19.4029 8.10074 19.6827 7.98339 20.1559L7.17043 23.436C7.13896 23.4776 7.10722 23.5187 7.07815 23.563L0.410207 33.7484C-0.112026 34.5466 -0.137898 35.6213 0.345661 36.4492C0.744404 37.132 1.42187 37.5296 2.1332 37.5296ZM27.5042 41.7927L26.0327 34.1591L30.2306 36.0246L27.5042 41.7927ZM9.17668 31.0086L7.16776 31.4954L7.77028 30.5753L9.17668 31.0086Z" fill="black"/>
<path d="M16.7167 31.3644C19.9571 30.5884 22.0197 27.0303 21.3237 23.4173C20.6276 19.8043 17.4365 17.5045 14.196 18.2806C10.9556 19.0567 8.89299 22.6147 9.58904 26.2277C10.2851 29.8407 13.4762 32.1405 16.7167 31.3644Z" fill="#EC9E41"/>
<path d="M56.0896 9.18829H52.5798V17.0152H56.0896V9.18829ZM55.2123 16.0368H53.4573V14.7324H55.2123V16.0368Z" fill="black"/>
<path d="M69.2516 9.18829H61.9396V28.7553H69.2516V9.18829Z" fill="#AFE5FB"/>
<path d="M56.9671 17.0152H60.4768V9.18829H56.9671V17.0152ZM57.8446 14.7321H59.5996V16.0365H57.8446V14.7321ZM56.0896 17.9936H52.5798V25.8204H56.0896V17.9936ZM55.2123 24.8417H53.4573V23.5374H55.2123V24.8417ZM56.9671 25.8201H60.4768V17.9936H56.9671V25.8201ZM57.8446 23.5374H59.5996V24.8417H57.8446V23.5374ZM56.0896 26.7985H52.5798V34.6254H56.0896V26.7985ZM55.2123 33.647H53.4573V32.3427H55.2123V33.647ZM56.9671 34.6254H60.4768V26.7985H56.9671V34.6254ZM57.8446 32.3424H59.5996V33.6467H57.8446V32.3424Z" fill="#EC9E41"/>
<path d="M63.1094 29.7337H61.9396V34.6254H63.1094V29.7337Z" fill="black"/>
<path d="M65.1566 29.7337H63.9868V34.6254H65.1566V29.7337Z" fill="black"/>
<path d="M67.204 29.7337H66.0342V34.6254H67.204V29.7337Z" fill="black"/>
<path d="M69.2514 29.7337H68.0815V34.6254H69.2514V29.7337Z" fill="black"/>
<path d="M69.2515 5.27502H52.5798V7.88398H69.2515V5.27502Z" fill="black"/>
<path d="M40.4483 17.182L46.4188 19.0852L46.4855 18.7774L39.5791 15.6293L39.8906 18.8069L34.5408 17.2049L34.3042 18.5624L40.9071 20.0149L40.4483 17.182Z" fill="#C9C33B"/>
<path d="M47.7387 16.7181L43.8558 11.1698L42.8869 13.6499L39.563 9.96625L38.8776 10.8519L43.1778 15.0129L43.9089 12.7176L47.5744 16.9123L47.7387 16.7181Z" fill="#C9C33B"/>
<path d="M47.0265 21.7555L40.8214 22.151L42.0779 24.4153L37.5413 25.3512L37.8002 26.4673L43.2306 24.9164L41.9744 22.9694L47.0745 22.0115L47.0265 21.7555Z" fill="#C9C33B"/>
<path d="M82.4683 14.7872L76.277 15.318L76.3106 15.6323L83.7677 15.9056L82.4843 13.0472L88 12.4747L87.7981 11.1103L81.1544 12.309L82.4683 14.7872Z" fill="#C9C33B"/>
<path d="M80.6162 20.3149L75.871 17.8032L75.778 18.0492L81.1488 21.7454L81.2838 19.0442L85.5492 21.2089L85.9154 20.113L80.5858 17.8794L80.6162 20.3149Z" fill="#C9C33B"/>
<path d="M74.8741 13.0502L80.5685 10.2732L78.6844 8.63728L82.6457 6.00067L82.0549 5.05469L77.4471 8.61468L79.2323 9.95291L74.7493 12.8286L74.8741 13.0502Z" fill="#C9C33B"/>
<path d="M77.366 23.4934H72.1762V2.01389H49.6548V4.01469H39.7588V0H38.9586V4.01469H34.6912V4.90684H49.6548V37.8865H52.6946V42.3773H41.7592V43.2694H46.4267V50.258H47.2269V43.2694H53.4948V37.8865H60.3849V52.6867H80.3444V51.7946H61.185V37.8865H64.8302V47.3338H77.701V46.4417H65.6304V37.8865H72.1762V24.3855H76.5658V30.1845H81.1V29.2924H77.366V23.4934ZM70.7138 36.2559H51.1172V3.64445H70.7138V36.2559Z" fill="#C4C4C4"/>
<line x1="3" y1="94" x2="81.0001" y2="94" stroke="#EC9E41" stroke-width="4"/>
</svg>
