<svg width="67" height="100" viewBox="0 0 67 100" fill="none" xmlns="http://www.w3.org/2000/svg">
<path d="M63.0149 75.0565L72.3668 96.6264C73.2738 98.7187 75.5086 100 77.8772 100C78.5872 100 79.309 99.8855 80.0109 99.6422C83.0535 98.5882 84.5646 95.5298 83.3853 92.8106L73.617 70.2809C73.3424 69.6468 72.933 69.0664 72.4112 68.5709L57.3059 54.2195C56.5113 59.0931 55.453 63.298 54.3431 66.8182L63.0149 75.0565Z" fill="white"/>
<path d="M32.8926 14.8076H14.9257V15.5317H32.8926V14.8076Z" fill="white"/>
<path d="M29.1495 19.1527H11.1826V19.8768H29.1495V19.1527Z" fill="white"/>
<path d="M25.7807 16.9802H0V17.7043H25.7807V16.9802Z" fill="white"/>
<path d="M54.8352 7.73224C53.2144 7.89699 51.7174 7.13872 50.9937 5.92676L37.6661 7.28277C37.4747 7.99584 37.3707 8.73933 37.3707 9.50478C37.3707 14.7544 42.1325 19.0096 48.0059 19.0096C53.8804 19.0096 58.6412 14.7544 58.6412 9.50478C58.6412 8.21847 58.3538 6.99214 57.8357 5.87311C57.2662 6.8671 56.1695 7.59664 54.8352 7.73224ZM52.9747 1.10086C51.4915 0.399201 49.8012 0 48.0059 0C43.862 0 40.2739 2.11978 38.5184 5.21115L50.5537 3.98694C50.6865 2.69175 51.6333 1.57653 52.9747 1.10086ZM60.3045 44.2095C61.2371 45.1718 62.1409 46.1789 63.012 47.2311C63.3419 45.7615 63.6029 44.2631 63.7995 42.7432L60.7526 44.0443C60.6056 44.1072 60.4558 44.1605 60.3045 44.2095ZM51.2717 23.6601C48.4597 20.8539 44.6282 20.0264 41.7312 20.6714C41.1961 20.7905 40.7021 20.9844 40.2489 21.2375L24.746 28.4404C23.1252 29.1936 22.3382 30.8753 22.877 32.4354L27.8685 46.8962C28.37 48.3481 29.8656 49.2804 31.4807 49.2804C31.8499 49.2804 32.2256 49.2318 32.5967 49.1296C34.5923 48.5791 35.7112 46.6879 35.0953 44.904L31.034 33.1375L37.1344 30.3033C37.1783 30.4719 37.2251 30.64 37.279 30.8065C38.5742 36.7197 40.8714 45.1997 39.7818 52.4622C39.4718 57.155 40.6341 58.3733 43.3066 58.7007C41.9505 64.3288 40.3046 68.4652 39.1002 71.0391L19.6151 68.1083C16.3952 67.6208 13.3493 69.5627 12.8081 72.4387C12.2664 75.315 14.4355 78.0385 17.6535 78.5221L41.5237 82.1128C41.8522 82.1623 42.1807 82.1868 42.5059 82.1868C44.5592 82.1868 46.4957 81.2278 47.5744 79.6175C47.8433 79.2162 54.0817 69.7233 56.5765 51.8095C56.6129 51.665 56.6498 51.521 56.6824 51.3706C57.0227 48.7574 57.2085 46.4475 57.2392 44.2826C56.5014 44.0832 55.8226 43.7279 55.2559 43.2345L42.6505 32.2508C40.7291 30.5758 40.6899 27.8156 42.5626 26.098C43.4876 25.2506 44.726 24.7847 46.05 24.7847C47.3267 24.7847 48.5335 25.2232 49.4476 26.0203L59.6201 34.8838L59.9755 34.7322C58.4096 32.2394 56.6602 29.7111 55.0446 27.6568C53.6029 25.823 52.27 24.3711 51.2717 23.6601Z" fill="white"/>
<path d="M58.6549 43.4981C59.2075 43.4981 59.7643 43.39 60.2843 43.1682L76.2763 36.3391C78.1604 35.5344 78.9583 33.5164 78.0583 31.8326C77.1579 30.1488 74.9023 29.4366 73.0158 30.24L59.4046 36.0527L48.689 26.7152C47.194 25.4125 44.7998 25.4395 43.3416 26.7761C41.8839 28.1127 41.9142 30.2523 43.4097 31.5551L56.0146 42.5384C56.7363 43.1674 57.6888 43.4981 58.6549 43.4981Z" fill="white"/>
</svg>
