<svg width="78" height="91" viewBox="0 0 78 91" fill="none" xmlns="http://www.w3.org/2000/svg">
<path d="M53.6881 54.1516C54.6727 55.1638 55.4496 56.359 55.9748 57.6698L61.5256 71.5226C62.1411 73.0589 63.6577 74 65.265 74C65.7468 74 66.2366 73.9157 66.7129 73.737C68.7777 72.9631 69.8031 70.7174 69.0028 68.7208L62.374 52.178C62.1876 51.7124 61.9098 51.2862 61.5557 50.9224L56.4296 45.6526C54.3272 43.4913 50.5529 44.9026 49.7945 47.8207C49.4642 49.0916 49.8605 50.2171 50.7761 51.1583L53.6881 54.1516Z" fill="black"/>
<path d="M28.0553 10.8727H16.3945C16.2477 10.8727 16.1287 10.9918 16.1287 11.1386C16.1287 11.2854 16.2477 11.4044 16.3945 11.4044H28.0553C28.2021 11.4044 28.3211 11.2854 28.3211 11.1386C28.3211 10.9918 28.2021 10.8727 28.0553 10.8727Z" fill="#AFE5FB"/>
<path d="M25.5151 14.0632H13.8544C13.7075 14.0632 13.5885 14.1822 13.5885 14.3291C13.5885 14.4759 13.7075 14.5949 13.8544 14.5949H25.5151C25.662 14.5949 25.781 14.4759 25.781 14.3291C25.781 14.1822 25.662 14.0632 25.5151 14.0632Z" fill="#AFE5FB"/>
<path d="M23.2291 12.468H6.26582C6.11901 12.468 6 12.587 6 12.7338C6 12.8806 6.11901 12.9996 6.26582 12.9996H23.2291C23.3759 12.9996 23.4949 12.8806 23.4949 12.7338C23.4949 12.587 23.3759 12.468 23.2291 12.468Z" fill="#EC9E41"/>
<path d="M43.2114 5.67752C41.346 5.88269 39.3894 4.4856 37.524 4.69097L33.1984 5.16717C32.2143 5.27551 31.36 5.98894 31.36 6.97904C31.36 10.8336 34.5913 13.9581 38.5771 13.9581C42.5635 13.9581 45.7942 10.8336 45.7942 6.97904C45.7942 6.91565 45.7933 6.85246 45.7916 6.78947C45.7632 5.76527 44.2299 5.56554 43.2114 5.67752ZM40.4903 2.20168C40.8033 1.4659 40.7822 0.287479 39.9972 0.135546C39.5381 0.046687 39.0633 0 38.5771 0C37.8433 0 37.1353 0.105963 36.4683 0.302915C34.1254 0.994748 35.4092 3.46642 37.8375 3.19916L39.558 3.0098C39.9936 2.96186 40.3188 2.60497 40.4903 2.20168ZM47.227 32.3402C47.0856 32.4058 47.0374 32.5894 47.1404 32.7064C47.3254 32.9168 47.5088 33.13 47.6903 33.346C48.1212 33.8588 48.963 33.6594 49.0692 32.9981C49.0758 32.9566 49.0824 32.9151 49.089 32.8736C49.191 32.2246 48.5267 31.7397 47.9303 32.0153L47.227 32.3402ZM42.3029 18.938C41.3842 17.8161 40.3539 16.7444 39.1066 16.0049C37.5155 15.0615 35.7494 14.8337 34.319 15.1783C33.9559 15.2658 33.6207 15.4082 33.3131 15.594L22.7928 20.8828C21.6929 21.4359 21.1588 22.6707 21.5245 23.8162L24.9117 34.4342C25.252 35.5003 26.2669 36.1849 27.363 36.1849C27.6135 36.1849 27.8685 36.1492 28.1203 36.0742C29.4745 35.67 30.2338 34.2813 29.8158 32.9714L27.6287 26.1149C27.3011 25.0879 27.769 23.9752 28.7322 23.4911L30.858 22.4224C31.0326 22.3347 31.2417 22.433 31.2977 22.6201C32.1766 26.962 33.7355 33.1886 32.9962 38.5212C32.989 38.6379 32.983 38.7517 32.9782 38.8627C32.8484 41.8433 34.65 46.3865 33.6751 49.2061C32.9138 51.4081 30.922 51.8993 28.6224 51.5251L19.3109 50.0096C17.1259 49.6516 15.0589 51.0775 14.6916 53.1892C14.324 55.3013 15.796 57.301 17.9797 57.6561L34.1782 60.2927C34.4011 60.329 34.624 60.3469 34.8447 60.3469C36.2381 60.3469 37.5522 59.6428 38.2842 58.4604C38.4667 58.1658 42.7001 51.1954 44.3931 38.0419C44.4178 37.9359 44.4428 37.8301 44.465 37.7197C44.622 36.4154 44.7305 35.214 44.7904 34.079C44.8392 33.1553 44.1701 32.3798 43.4969 31.7456L34.9429 23.6806C33.639 22.4508 33.6123 20.4241 34.8832 19.1629C35.5109 18.5407 36.3513 18.1985 37.2498 18.1985C38.1161 18.1985 38.935 18.5205 39.5554 19.1058L46.3849 25.5446C46.4293 25.5865 46.4949 25.5972 46.5504 25.5716C46.6305 25.5346 46.6615 25.4367 46.617 25.3605C45.5757 23.5764 44.4215 21.7768 43.3535 20.3074C42.9905 19.8079 42.6377 19.3469 42.3029 18.938Z" fill="black"/>
<path d="M50.0327 32.8529C50.4077 32.8529 50.7855 32.7735 51.1384 32.6107L61.9907 27.5963C63.2692 27.0054 63.8107 25.5237 63.1999 24.2873C62.5889 23.051 61.0582 22.528 59.7781 23.118L59.6139 23.1938C54.133 25.7264 47.6628 24.6718 43.2698 20.5298C42.2552 19.5732 40.6306 19.5931 39.641 20.5745C38.6518 21.5559 38.6723 23.1269 39.6872 24.0835L48.2409 32.1482C48.7307 32.6101 49.3771 32.8529 50.0327 32.8529Z" fill="#EC9E41"/>
<line y1="89" x2="78.0001" y2="89" stroke="#EC9E41" stroke-width="4"/>
</svg>
