<svg width="180" height="95" viewBox="0 0 200 105" fill="none" xmlns="http://www.w3.org/2000/svg">
<path d="M41.2578 65.3564C41.2578 65.3861 41.2578 65.4305 41.2578 65.4897C40.9023 67.8299 39.6878 69 37.6143 69C36.9329 69 36.3257 68.8223 35.7925 68.4668C34.6076 67.6966 34.0151 66.4377 34.0151 64.6899C34.0151 64.3345 34.1336 63.0459 34.3706 60.8242C33.1857 62.6608 31.675 64.2456 29.8384 65.5786C26.6095 67.8595 23.0697 69 19.2188 69C18.5671 69 17.9006 68.9556 17.2192 68.8667C12.6574 68.215 8.88053 65.5046 5.88867 60.7354C2.57096 55.4329 0.912109 48.7975 0.912109 40.8291C0.912109 33.1569 2.33398 21.382 5.17773 5.50439C5.32585 4.64535 5.41471 4.11214 5.44434 3.90479C5.5332 3.49007 5.65169 3.07536 5.7998 2.66064C6.4515 1.1499 7.48828 0.394531 8.91016 0.394531C9.47298 0.394531 10.021 0.542643 10.5542 0.838867C11.7391 1.49056 12.376 2.51253 12.4648 3.90479C12.3464 4.5861 12.2131 5.40072 12.0649 6.34863C9.66553 21.3968 8.46582 32.0312 8.46582 38.252C8.46582 44.8874 9.35449 50.2935 11.1318 54.4702C13.1758 59.3283 16.1232 61.7573 19.9741 61.7573C20.3296 61.7573 20.6999 61.7277 21.085 61.6685C23.988 61.1056 26.9798 58.721 30.0605 54.5146C33.556 49.7454 36.0295 44.2209 37.481 37.9409L42.0132 3.90479C42.0428 3.34196 42.1909 2.80876 42.4575 2.30518C43.1092 1.03141 44.146 0.394531 45.5679 0.394531C46.1307 0.394531 46.6639 0.542643 47.1675 0.838867C48.3524 1.49056 49.0041 2.51253 49.1226 3.90479C48.7671 6.60042 48.3672 9.71077 47.9229 13.2358C43.5684 47.5682 41.3467 64.9417 41.2578 65.3564ZM62.0527 63.6235C61.9342 64.6899 61.6232 65.6527 61.1196 66.5117C60.2606 67.9632 59.1794 68.689 57.876 68.689C57.5501 68.689 57.2391 68.6297 56.9429 68.5112C55.4618 67.8892 54.7212 66.3192 54.7212 63.8013L58.498 35.7637C58.5573 35.2305 58.6462 34.7269 58.7646 34.2529C59.2682 31.7943 60.4087 30.5649 62.186 30.5649C62.5711 30.5649 62.9414 30.6094 63.2969 30.6982C64.5706 31.0537 65.2075 32.3127 65.2075 34.4751C65.2075 35.3341 65.1631 36.3117 65.0742 37.4077C65.1038 37.3485 65.1483 37.2744 65.2075 37.1855C67.4292 33.2161 70.584 31.2314 74.6719 31.2314C75.8864 31.2314 77.1453 31.5573 78.4487 32.209C80.4631 33.2458 81.7368 34.638 82.27 36.3857C84.4028 33.1865 87.3503 31.5721 91.1123 31.5425C92.5638 31.5425 93.9116 31.9868 95.1558 32.8755C96.9627 34.1789 97.8662 35.9266 97.8662 38.1187C97.8662 39.5405 97.8514 41.7178 97.8218 44.6504C97.7625 47.8792 97.7329 50.3527 97.7329 52.0708C97.7329 53.4038 97.7625 54.5591 97.8218 55.5366C98.1772 60.1873 99.5991 62.5127 102.087 62.5127C102.384 62.5127 102.695 62.4831 103.021 62.4238C103.88 62.2165 105.139 61.5203 106.797 60.3354C108.427 59.1506 109.73 58.5581 110.708 58.5581C111.093 58.5581 111.463 58.6766 111.818 58.9136C112.737 59.4764 113.196 60.3503 113.196 61.5352C113.196 61.624 113.181 61.7425 113.151 61.8906C112.944 63.3125 111.715 64.7788 109.463 66.2896C106.708 68.1558 103.968 69.0889 101.243 69.0889C99.0215 69.0889 97.1405 68.4816 95.6001 67.2671C92.4305 64.7196 90.8457 59.1357 90.8457 50.5156C90.8457 50.012 90.8605 49.1974 90.8901 48.0718C90.9494 46.4425 90.979 45.0355 90.979 43.8506C90.979 40.7402 90.6235 39.1554 89.9126 39.0962C89.3201 39.0962 88.624 39.5553 87.8242 40.4736C85.7507 42.873 83.529 47.3016 81.1592 53.7593L80.4038 61.3574C80.2261 63.3125 79.9743 64.8084 79.6484 65.8452C79.0264 67.8595 77.8415 68.8667 76.0938 68.8667C75.6198 68.8667 75.1755 68.763 74.7607 68.5557C73.487 67.9632 72.8501 66.7339 72.8501 64.8677C72.8501 63.0607 73.2648 59.8171 74.0942 55.1367C75.2199 48.7087 75.7827 44.3097 75.7827 41.9399C75.7827 41.3179 75.7235 40.7699 75.605 40.2959C75.368 39.2887 74.7459 38.7852 73.7388 38.7852C73.2056 38.8148 72.6131 39.1258 71.9614 39.7183C69.7694 41.7918 67.3403 46.6203 64.6743 54.2036C62.9266 59.1506 62.0527 62.2905 62.0527 63.6235ZM119.505 31.6758C120.542 31.7054 121.52 31.8091 122.438 31.9868C127 32.9644 129.799 36.519 130.836 42.6509C131.399 42.325 132.332 41.7178 133.635 40.8291C135.413 39.6146 136.76 39.0073 137.679 39.0073C138.123 39.0073 138.553 39.1406 138.967 39.4072C139.886 39.9997 140.345 40.7995 140.345 41.8066C140.315 42.8138 139.663 43.9246 138.39 45.1392C136.583 46.798 134.243 48.2051 131.369 49.3604C131.34 53.9814 130.643 57.8916 129.281 61.0908C127.059 66.3044 123.416 68.9111 118.35 68.9111C116.543 68.9111 114.736 68.3335 112.929 67.1782C108.752 64.4233 106.664 59.4616 106.664 52.293C106.664 47.9681 107.39 44.0283 108.841 40.4736C111.122 34.875 114.677 31.9424 119.505 31.6758ZM125.06 50.5156C123.904 50.486 122.808 50.3675 121.771 50.1602C117.861 49.3307 115.343 47.2572 114.218 43.9395C113.448 46.4277 113.062 49.1382 113.062 52.0708C113.062 53.4927 113.196 54.8701 113.462 56.2031C114.292 60.2614 116.099 62.2905 118.883 62.2905C119.802 62.2905 120.631 62.0091 121.372 61.4463C123.534 59.7874 124.763 56.1439 125.06 50.5156ZM124.393 44.4727C124.393 44.4727 124.6 44.4727 125.015 44.4727C124.571 40.4144 123.504 38.3704 121.816 38.3408C121.668 38.3408 121.52 38.3556 121.372 38.3853C120.72 38.6222 120.394 39.111 120.394 39.8516C120.394 40.5033 120.498 41.1401 120.705 41.7622C121.357 43.5692 122.586 44.4727 124.393 44.4727ZM146.61 31.3203C148.535 31.3499 149.528 32.6089 149.587 35.0972L144.655 70.3774C152.06 64.7196 156.222 61.5203 157.141 60.7798C158.237 59.8319 159.362 59.3431 160.518 59.3135C160.932 59.3135 161.332 59.4468 161.717 59.7134C162.576 60.3058 163.006 61.0612 163.006 61.9795C162.976 63.4014 162.176 64.7788 160.606 66.1118C156.252 69.785 150.49 74.3024 143.322 79.6641L141.278 94.3716C141.189 95.0529 141.056 95.7194 140.878 96.3711C139.515 101.585 136.094 104.191 130.614 104.191C127.889 104.191 125.489 103.169 123.416 101.125C121.372 99.0815 120.35 96.7858 120.35 94.2383C120.35 91.5723 120.986 89.3802 122.26 87.6621C122.971 86.7734 124.363 85.5589 126.437 84.0186L137.101 76.0205C140.863 51.1673 142.789 38.1038 142.877 36.8301C142.877 36.6523 142.892 36.4894 142.922 36.3413C143.248 32.994 144.477 31.3203 146.61 31.3203ZM134.924 90.8169C134.924 90.8169 135.176 89.0099 135.679 85.396L130.747 89.1729C128.614 90.7725 127.533 92.2832 127.503 93.7051C127.503 94.2087 127.592 94.6826 127.77 95.127C128.274 96.4303 129.222 97.082 130.614 97.082C131.177 97.082 131.68 96.9932 132.125 96.8154C133.546 96.1934 134.479 94.1938 134.924 90.8169ZM144.566 22.8335C144.566 22.3003 144.699 21.7967 144.966 21.3228C145.588 20.1675 146.551 19.5898 147.854 19.5898C148.387 19.5898 148.906 19.7231 149.409 19.9897C150.535 20.6118 151.098 21.5597 151.098 22.8335C151.098 23.3667 150.964 23.8851 150.698 24.3887C150.076 25.5143 149.128 26.0771 147.854 26.0771C147.321 26.0771 146.802 25.9438 146.299 25.6772C145.144 25.0848 144.566 24.1369 144.566 22.8335ZM159.673 55.0479C159.673 54.0407 159.733 52.9743 159.851 51.8486C160.473 46.7536 162.073 42.2362 164.65 38.2964C167.79 33.4976 171.567 31.0981 175.98 31.0981C177.876 31.0981 179.535 31.4684 180.957 32.209C181.549 31.498 182.364 31.1278 183.401 31.0981C183.993 31.0981 184.364 31.1426 184.512 31.2314C185.785 31.6462 186.422 32.9051 186.422 35.0083C186.422 35.8674 186.274 37.7188 185.978 40.5625C185.06 48.9753 184.601 54.2036 184.601 56.2476C184.601 57.6102 184.882 58.884 185.445 60.0688C186.274 61.8462 187.37 62.7349 188.733 62.7349C189 62.7349 189.281 62.7052 189.577 62.646C190.466 62.4683 191.74 61.7869 193.398 60.6021C195.028 59.4172 196.331 58.8247 197.309 58.8247C197.694 58.8247 198.094 58.958 198.508 59.2246C199.367 59.8171 199.797 60.6021 199.797 61.5796C199.708 63.12 198.538 64.7196 196.287 66.3784C193.591 68.2743 190.732 69.2222 187.711 69.2222C183.979 69.1925 181.224 67.3115 179.446 63.5791C179.032 64.0827 178.558 64.5863 178.024 65.0898C175.092 67.8447 172.115 69.2222 169.093 69.2222C167.197 69.2222 165.553 68.7334 164.161 67.7559C161.169 65.5638 159.673 61.3278 159.673 55.0479ZM179.224 40.4292C179.224 40.4292 179.328 39.422 179.535 37.4077C178.883 37.0819 178.202 36.9189 177.491 36.9189C176.958 36.9189 176.41 36.993 175.847 37.1411C173.092 37.9113 170.767 40.4588 168.871 44.7837C167.183 48.6642 166.338 52.5596 166.338 56.4697C166.338 56.6178 166.338 56.766 166.338 56.9141C166.427 60.528 167.346 62.335 169.093 62.335C170.012 62.3053 171.137 61.8018 172.47 60.8242C173.833 59.8467 174.825 58.9284 175.447 58.0693C175.832 57.5065 176.351 55.8625 177.002 53.1372C178.187 48.0718 178.928 43.8358 179.224 40.4292Z" fill="white"/>
</svg>
